M48
; DRILL file {KiCad 9.0.0} date 2025-11-21T14:04:07-0500
; FORMAT={-:-/ absolute / inch / decimal}
; #@! TF.CreationDate,2025-11-21T14:04:07-05:00
; #@! TF.GenerationSoftware,Kicad,Pcbnew,9.0.0
; #@! TF.FileFunction,Plated,1,2,PTH
FMAT,2
INCH
; #@! TA.AperFunction,Plated,PTH,ViaDrill
T1C0.0118
; #@! TA.AperFunction,Plated,PTH,ComponentDrill
T2C0.0118
; #@! TA.AperFunction,Plated,PTH,ComponentDrill
T3C0.0236
; #@! TA.AperFunction,Plated,PTH,ComponentDrill
T4C0.0394
; #@! TA.AperFunction,Plated,PTH,ComponentDrill
T5C0.0472
%
G90
G05
T1
X4.4919Y-2.5437
X4.5031Y-4.8633
X4.5202Y-2.5924
X4.5462Y-4.795
X4.5497Y-2.4987
X4.555Y-2.6417
X4.5562Y-4.901
X4.5898Y-2.691
X4.5933Y-2.5405
X4.5943Y-4.7263
X4.5961Y-4.9586
X4.5969Y-4.8614
X4.5974Y-2.4465
X4.6107Y-4.9896
X4.6247Y-2.7403
X4.6364Y-2.5827
X4.6366Y-5.016
X4.6379Y-4.9151
X4.6383Y-2.3954
X4.6494Y-2.4966
X4.6562Y-4.8021
X4.6605Y-2.7824
X4.6616Y-4.6168
X4.6795Y-2.6249
X4.6801Y-4.8719
X4.7001Y-2.6799
X4.7125Y-2.555
X4.7166Y-4.7446
X4.7216Y-4.6754
X4.7223Y-4.8288
X4.7257Y-2.7257
X4.734Y-4.9594
X4.746Y-2.4688
X4.7565Y-2.9156
X4.7577Y-2.6322
X4.7786Y-4.8106
X4.7908Y-2.6651
X4.7992Y-2.9144
X4.8055Y-3.0112
X4.8055Y-4.4112
X4.8055Y-4.5112
X4.814Y-2.5163
X4.8227Y-4.7901
X4.8326Y-4.8898
X4.8455Y-2.9131
X4.8603Y-4.8248
X4.875Y-2.6674
X4.8782Y-4.3858
X4.8819Y-4.855
X4.882Y-2.5639
X4.8948Y-2.6459
X4.9006Y-2.6905
X4.9055Y-3.0112
X4.9055Y-3.1112
X4.9055Y-3.2112
X4.9055Y-3.3112
X4.9055Y-4.1112
X4.9055Y-4.2112
X4.9155Y-2.6203
X4.9238Y-2.6707
X4.9378Y-2.5955
X4.9444Y-2.6459
X4.9651Y-2.6145
X5.0246Y-3.4619
X5.0281Y-3.9658
X5.0281Y-3.9926
X5.0538Y-4.253
X5.0586Y-3.4626
X5.0588Y-3.992
X5.0597Y-3.9645
X5.0779Y-4.233
X5.0823Y-4.393
X5.1114Y-4.359
X5.115Y-4.3944
X5.1172Y-4.0636
X5.1199Y-3.0458
X5.1271Y-4.4449
X5.1477Y-4.3742
X5.1482Y-3.9631
X5.1513Y-3.2366
X5.1526Y-4.0419
X5.1541Y-3.2919
X5.171Y-4.2948
X5.1732Y-4.6859
X5.1898Y-3.3291
X5.1922Y-3.2981
X5.1973Y-4.2711
X5.2001Y-2.9511
X5.2005Y-2.8824
X5.2007Y-3.0192
X5.2013Y-2.9837
X5.2147Y-4.5954
X5.2152Y-4.6413
X5.2256Y-3.9484
X5.2261Y-3.5528
X5.2266Y-3.5791
X5.2268Y-4.0376
X5.2435Y-3.0233
X5.2457Y-2.9478
X5.2619Y-3.7403
X5.2625Y-3.8665
X5.263Y-3.7805
X5.2634Y-3.9048
X5.264Y-3.8172
X5.2649Y-3.9395
X5.2664Y-3.9706
X5.2684Y-3.6523
X5.2922Y-4.5096
X5.2937Y-3.0811
X5.3018Y-4.5332
X5.3218Y-4.5048
X5.3284Y-3.1643
X5.3312Y-3.437
X5.3375Y-3.2287
X5.3467Y-4.147
X5.3471Y-3.4602
X5.3616Y-3.437
X5.3748Y-4.1464
X5.3752Y-3.4624
X5.3876Y-3.4378
X5.3981Y-3.8982
X5.4036Y-3.652
X5.424Y-3.1692
X5.4534Y-3.1683
X5.4554Y-3.6513
X5.4907Y-3.2897
X5.5044Y-3.5926
X5.5084Y-3.6494
X5.5084Y-3.6789
X5.5137Y-4.2893
X5.5139Y-3.5566
X5.5149Y-3.4898
X5.5529Y-3.3557
X5.582Y-3.4854
X5.5863Y-2.9357
X5.6004Y-3.1481
X5.6318Y-3.655
X5.6362Y-3.1872
X5.6442Y-3.4494
X5.6449Y-3.9926
X5.6549Y-4.5112
X5.6648Y-4.2103
X5.6686Y-3.4669
X5.6766Y-4.2778
X5.6784Y-3.2226
X5.6784Y-3.252
X5.6787Y-3.2815
X5.6808Y-3.7609
X5.6869Y-3.6449
X5.6895Y-3.5538
X5.6896Y-3.3168
X5.6934Y-3.4791
X5.6966Y-2.9299
X5.7053Y-3.2233
X5.7055Y-4.5112
X5.7057Y-3.2509
X5.706Y-3.2813
X5.7087Y-3.9862
X5.7245Y-3.6891
X5.7251Y-3.8899
X5.7327Y-3.2509
X5.7333Y-3.281
X5.7431Y-3.9351
X5.7433Y-3.1766
X5.7434Y-2.9283
X5.748Y-3.3436
X5.7539Y-3.7535
X5.7603Y-3.2513
X5.7726Y-3.0112
X5.7733Y-3.1781
X5.7784Y-3.781
X5.7797Y-4.3883
X5.7874Y-3.3465
X5.7981Y-3.9355
X5.8268Y-3.7291
X5.8372Y-3.0709
X5.8434Y-4.362
X5.8465Y-3.3465
X5.8466Y-3.1783
X5.8504Y-3.3858
X5.8555Y-3.8777
X5.876Y-3.5324
X5.8812Y-3.6931
X5.8847Y-3.7197
X5.8996Y-3.7715
X5.9055Y-4.5112
X5.9087Y-3.7189
X5.9132Y-3.5492
X5.9134Y-3.3858
X5.914Y-3.6891
X5.9154Y-3.3465
X5.9181Y-3.6099
X5.9211Y-3.6365
X5.9678Y-3.2197
X5.9729Y-4.3895
X5.9775Y-3.8873
X6.0038Y-3.8708
X6.0055Y-4.2112
X6.0055Y-4.3112
X6.0119Y-3.0916
X6.0267Y-2.9199
X6.0294Y-3.6087
X6.0313Y-3.5703
X6.0512Y-3.1122
X6.0814Y-3.7021
X6.0847Y-3.1732
X6.0925Y-3.8976
X6.0925Y-3.9272
X6.1037Y-3.6798
X6.1045Y-3.3791
X6.1049Y-3.3509
X6.1051Y-3.3235
X6.1057Y-3.5721
X6.1069Y-3.6076
X6.1077Y-3.6395
X6.1242Y-3.8032
X6.1319Y-3.5129
X6.1329Y-3.3793
X6.1332Y-3.3511
X6.1334Y-3.3237
X6.1418Y-3.2594
X6.1433Y-3.2077
X6.1436Y-3.2343
X6.1437Y-3.0967
X6.1475Y-3.5977
X6.1481Y-3.5727
X6.1603Y-3.3793
X6.1606Y-3.3511
X6.1608Y-3.3237
X6.1614Y-3.5131
X6.1628Y-2.8873
X6.169Y-3.0967
X6.1722Y-3.5827
X6.1783Y-4.4762
X6.1794Y-3.2089
X6.1804Y-3.2594
X6.1809Y-3.2343
X6.1811Y-3.6417
X6.1811Y-3.6713
X6.197Y-2.8873
X6.1981Y-3.7102
X6.1988Y-4.3757
X6.2044Y-3.9494
X6.2055Y-4.2112
X6.2088Y-4.3494
X6.2144Y-3.2089
X6.2149Y-3.2335
X6.2149Y-3.2589
X6.2159Y-4.4754
X6.2268Y-3.7153
X6.2522Y-3.2335
X6.2526Y-3.2583
X6.2853Y-3.2337
X6.2859Y-3.2594
X6.3055Y-4.6112
X6.3093Y-2.7721
X6.3582Y-2.7553
X6.377Y-2.93
X6.3778Y-2.8865
X6.385Y-3.409
X6.3991Y-2.7778
X6.4048Y-4.1138
X6.413Y-4.3596
X6.4192Y-3.7875
X6.4192Y-3.8149
X6.4328Y-4.4354
X6.4346Y-4.4648
X6.4369Y-2.9192
X6.4384Y-2.8226
X6.4408Y-2.7609
X6.4469Y-3.189
X6.4512Y-2.7192
X6.4633Y-4.4461
X6.4729Y-2.7465
X6.4857Y-2.7
X6.4862Y-3.1102
X6.4899Y-4.486
X6.4899Y-4.5135
X6.49Y-3.9326
X6.4907Y-4.5417
X6.4925Y-3.7799
X6.4943Y-3.847
X6.5399Y-3.9609
X6.5705Y-3.9609
X6.5735Y-2.959
X6.5814Y-3.4605
X6.5832Y-3.3795
X6.6205Y-2.7814
X6.6205Y-2.8083
X6.6213Y-2.8346
X6.6213Y-2.8617
X6.6447Y-2.7936
X6.6455Y-2.8207
X6.6455Y-2.85
X6.6847Y-2.7824
X6.7055Y-3.0112
X6.7055Y-3.1112
X6.7055Y-3.2112
X6.7055Y-4.2112
X6.7055Y-4.3112
X6.7055Y-4.4112
X6.7055Y-4.5112
X6.7224Y-2.5561
X6.7381Y-4.8619
X6.7604Y-2.603
X6.7925Y-4.767
X6.7989Y-2.6394
X6.8055Y-2.8112
X6.8055Y-2.9112
X6.8055Y-3.0112
X6.8055Y-4.4112
X6.8055Y-4.5112
X6.8068Y-4.9099
X6.8096Y-2.4999
X6.8408Y-4.8159
X6.848Y-2.6867
X6.8494Y-2.5991
X6.8733Y-4.6903
X6.8755Y-4.958
X6.8951Y-4.8467
X6.9004Y-2.5715
X6.904Y-4.7379
X6.9082Y-2.4303
X6.9216Y-2.6508
X6.927Y-4.7915
X6.9368Y-4.6342
X6.9426Y-2.5283
X6.9428Y-2.7907
X6.9442Y-5.006
X6.9512Y-2.6146
X6.9526Y-4.9183
X6.9575Y-2.3955
X6.9702Y-4.8337
X6.984Y-2.409
X6.9847Y-2.4851
X7.0053Y-4.9417
X7.0078Y-2.6768
X7.0085Y-4.7181
X7.0103Y-2.545
X7.0134Y-4.8759
X7.0264Y-2.4415
X7.0433Y-4.7674
X7.0559Y-2.6081
X7.0569Y-4.9176
X7.0782Y-4.8167
X7.0801Y-2.5049
X7.0899Y-4.893
X7.1Y-2.5644
X7.113Y-4.866
T2
X5.8062Y-4.1927
X5.8062Y-4.2478
X5.8338Y-4.1651
X5.8338Y-4.2202
X5.8338Y-4.2754
X5.8613Y-4.1927
X5.8613Y-4.2478
X5.8889Y-4.1651
X5.8889Y-4.2202
X5.8889Y-4.2754
X5.9164Y-4.1927
X5.9164Y-4.2478
T3
X5.3568Y-4.0553
X5.3568Y-4.1045
T4
X4.9715Y-2.9214
X4.9715Y-3.0214
X4.9715Y-3.1214
X4.9715Y-3.2214
X4.9715Y-3.3214
X4.9715Y-3.4214
X4.9715Y-3.9915
X4.9715Y-4.0915
X4.9715Y-4.1915
X4.9715Y-4.2915
X4.9715Y-4.3915
X4.9715Y-4.4915
X6.633Y-2.9214
X6.633Y-3.0214
X6.633Y-3.1214
X6.633Y-3.2214
X6.633Y-3.3214
X6.633Y-3.4214
X6.633Y-3.9915
X6.633Y-4.0915
X6.633Y-4.1915
X6.633Y-4.2915
X6.633Y-4.3915
X6.633Y-4.4915
T5
X6.2463Y-3.1514
X6.3448Y-3.1514
T3
G00X5.6322Y-2.9443
M15
G01X5.6322Y-2.9128
M16
G05
G00X5.6322Y-3.1155
M15
G01X5.6322Y-3.0722
M16
G05
G00X5.9723Y-2.9443
M15
G01X5.9723Y-2.9128
M16
G05
G00X5.9723Y-3.1155
M15
G01X5.9723Y-3.0722
M16
G05
M30
