%TF.GenerationSoftware,KiCad,Pcbnew,9.0.0*%
%TF.CreationDate,2025-11-21T14:04:07-05:00*%
%TF.ProjectId,LiteWingV2.5C,4c697465-5769-46e6-9756-322e35432e6b,rev?*%
%TF.SameCoordinates,Original*%
%TF.FileFunction,Legend,Bot*%
%TF.FilePolarity,Positive*%
%FSLAX46Y46*%
G04 Gerber Fmt 4.6, Leading zero omitted, Abs format (unit mm)*
G04 Created by KiCad (PCBNEW 9.0.0) date 2025-11-21 14:04:07*
%MOMM*%
%LPD*%
G01*
G04 APERTURE LIST*
G04 Aperture macros list*
%AMRoundRect*
0 Rectangle with rounded corners*
0 $1 Rounding radius*
0 $2 $3 $4 $5 $6 $7 $8 $9 X,Y pos of 4 corners*
0 Add a 4 corners polygon primitive as box body*
4,1,4,$2,$3,$4,$5,$6,$7,$8,$9,$2,$3,0*
0 Add four circle primitives for the rounded corners*
1,1,$1+$1,$2,$3*
1,1,$1+$1,$4,$5*
1,1,$1+$1,$6,$7*
1,1,$1+$1,$8,$9*
0 Add four rect primitives between the rounded corners*
20,1,$1+$1,$2,$3,$4,$5,0*
20,1,$1+$1,$4,$5,$6,$7,0*
20,1,$1+$1,$6,$7,$8,$9,0*
20,1,$1+$1,$8,$9,$2,$3,0*%
%AMRotRect*
0 Rectangle, with rotation*
0 The origin of the aperture is its center*
0 $1 length*
0 $2 width*
0 $3 Rotation angle, in degrees counterclockwise*
0 Add horizontal line*
21,1,$1,$2,0,0,$3*%
G04 Aperture macros list end*
%ADD10C,0.200000*%
%ADD11C,0.125000*%
%ADD12C,0.152400*%
%ADD13C,0.120000*%
%ADD14C,0.100000*%
%ADD15C,0.000000*%
%ADD16R,1.000000X1.000000*%
%ADD17O,1.000000X1.000000*%
%ADD18RoundRect,0.312500X-0.176777X0.795495X-0.795495X0.176777X0.176777X-0.795495X0.795495X-0.176777X0*%
%ADD19RotRect,1.500000X2.000000X225.000000*%
%ADD20RoundRect,0.312500X0.795495X0.176777X0.176777X0.795495X-0.795495X-0.176777X-0.176777X-0.795495X0*%
%ADD21RotRect,1.500000X2.000000X135.000000*%
%ADD22RoundRect,0.312500X0.176777X-0.795495X0.795495X-0.176777X-0.176777X0.795495X-0.795495X0.176777X0*%
%ADD23RotRect,1.500000X2.000000X45.000000*%
%ADD24R,1.700000X1.700000*%
%ADD25O,1.700000X1.700000*%
%ADD26C,0.650000*%
%ADD27O,1.000000X2.100000*%
%ADD28O,1.000000X1.800000*%
%ADD29O,1.800000X1.800000*%
%ADD30RoundRect,0.312500X-0.795495X-0.176777X-0.176777X-0.795495X0.795495X0.176777X0.176777X0.795495X0*%
%ADD31RotRect,1.500000X2.000000X315.000000*%
%ADD32C,1.700000*%
%ADD33R,1.000000X2.510000*%
%ADD34O,1.524000X1.524000*%
G04 APERTURE END LIST*
D10*
X179037321Y-128459380D02*
X179172008Y-128526723D01*
X179172008Y-128526723D02*
X179239351Y-128526723D01*
X179239351Y-128526723D02*
X179340366Y-128493052D01*
X179340366Y-128493052D02*
X179441382Y-128392036D01*
X179441382Y-128392036D02*
X179475053Y-128291021D01*
X179475053Y-128291021D02*
X179475053Y-128223678D01*
X179475053Y-128223678D02*
X179441382Y-128122662D01*
X179441382Y-128122662D02*
X179172008Y-127853288D01*
X179172008Y-127853288D02*
X178464901Y-128560395D01*
X178464901Y-128560395D02*
X178700603Y-128796097D01*
X178700603Y-128796097D02*
X178801618Y-128829769D01*
X178801618Y-128829769D02*
X178868962Y-128829769D01*
X178868962Y-128829769D02*
X178969977Y-128796097D01*
X178969977Y-128796097D02*
X179037321Y-128728754D01*
X179037321Y-128728754D02*
X179070992Y-128627739D01*
X179070992Y-128627739D02*
X179070992Y-128560395D01*
X179070992Y-128560395D02*
X179037321Y-128459380D01*
X179037321Y-128459380D02*
X178801618Y-128223678D01*
X180215832Y-128897113D02*
X179879114Y-128560395D01*
X179879114Y-128560395D02*
X179172008Y-129267502D01*
X179744428Y-129839922D02*
X180316847Y-129267502D01*
X180316847Y-129267502D02*
X180417863Y-129233830D01*
X180417863Y-129233830D02*
X180485206Y-129233830D01*
X180485206Y-129233830D02*
X180586221Y-129267502D01*
X180586221Y-129267502D02*
X180720908Y-129402189D01*
X180720908Y-129402189D02*
X180754580Y-129503204D01*
X180754580Y-129503204D02*
X180754580Y-129570548D01*
X180754580Y-129570548D02*
X180720908Y-129671563D01*
X180720908Y-129671563D02*
X180148489Y-130243983D01*
X180821924Y-130243983D02*
X181057626Y-130479685D01*
X181529030Y-130210311D02*
X181192313Y-129873593D01*
X181192313Y-129873593D02*
X180485206Y-130580700D01*
X180485206Y-130580700D02*
X180821924Y-130917418D01*
X182234069Y-125705349D02*
X181661649Y-125806365D01*
X181830008Y-125301288D02*
X181122901Y-126008395D01*
X181122901Y-126008395D02*
X181392275Y-126277769D01*
X181392275Y-126277769D02*
X181493290Y-126311441D01*
X181493290Y-126311441D02*
X181560634Y-126311441D01*
X181560634Y-126311441D02*
X181661649Y-126277769D01*
X181661649Y-126277769D02*
X181762664Y-126176754D01*
X181762664Y-126176754D02*
X181796336Y-126075739D01*
X181796336Y-126075739D02*
X181796336Y-126008395D01*
X181796336Y-126008395D02*
X181762664Y-125907380D01*
X181762664Y-125907380D02*
X181493290Y-125638006D01*
X182166725Y-126378784D02*
X182402427Y-126614487D01*
X182873832Y-126345113D02*
X182537114Y-126008395D01*
X182537114Y-126008395D02*
X181830008Y-126715502D01*
X181830008Y-126715502D02*
X182166725Y-127052219D01*
X183176878Y-126648158D02*
X182469771Y-127355265D01*
X182469771Y-127355265D02*
X182638130Y-127523624D01*
X182638130Y-127523624D02*
X182772817Y-127590967D01*
X182772817Y-127590967D02*
X182907504Y-127590967D01*
X182907504Y-127590967D02*
X183008519Y-127557296D01*
X183008519Y-127557296D02*
X183176878Y-127456280D01*
X183176878Y-127456280D02*
X183277893Y-127355265D01*
X183277893Y-127355265D02*
X183378908Y-127186906D01*
X183378908Y-127186906D02*
X183412580Y-127085891D01*
X183412580Y-127085891D02*
X183412580Y-126951204D01*
X183412580Y-126951204D02*
X183345237Y-126816517D01*
X183345237Y-126816517D02*
X183176878Y-126648158D01*
D11*
X144077323Y-114386270D02*
X144043456Y-114352404D01*
X144043456Y-114352404D02*
X143941856Y-114318537D01*
X143941856Y-114318537D02*
X143874123Y-114318537D01*
X143874123Y-114318537D02*
X143772523Y-114352404D01*
X143772523Y-114352404D02*
X143704790Y-114420137D01*
X143704790Y-114420137D02*
X143670923Y-114487870D01*
X143670923Y-114487870D02*
X143637056Y-114623337D01*
X143637056Y-114623337D02*
X143637056Y-114724937D01*
X143637056Y-114724937D02*
X143670923Y-114860404D01*
X143670923Y-114860404D02*
X143704790Y-114928137D01*
X143704790Y-114928137D02*
X143772523Y-114995870D01*
X143772523Y-114995870D02*
X143874123Y-115029737D01*
X143874123Y-115029737D02*
X143941856Y-115029737D01*
X143941856Y-115029737D02*
X144043456Y-114995870D01*
X144043456Y-114995870D02*
X144077323Y-114962004D01*
X144348256Y-114352404D02*
X144449856Y-114318537D01*
X144449856Y-114318537D02*
X144619190Y-114318537D01*
X144619190Y-114318537D02*
X144686923Y-114352404D01*
X144686923Y-114352404D02*
X144720790Y-114386270D01*
X144720790Y-114386270D02*
X144754656Y-114454004D01*
X144754656Y-114454004D02*
X144754656Y-114521737D01*
X144754656Y-114521737D02*
X144720790Y-114589470D01*
X144720790Y-114589470D02*
X144686923Y-114623337D01*
X144686923Y-114623337D02*
X144619190Y-114657204D01*
X144619190Y-114657204D02*
X144483723Y-114691070D01*
X144483723Y-114691070D02*
X144415990Y-114724937D01*
X144415990Y-114724937D02*
X144382123Y-114758804D01*
X144382123Y-114758804D02*
X144348256Y-114826537D01*
X144348256Y-114826537D02*
X144348256Y-114894270D01*
X144348256Y-114894270D02*
X144382123Y-114962004D01*
X144382123Y-114962004D02*
X144415990Y-114995870D01*
X144415990Y-114995870D02*
X144483723Y-115029737D01*
X144483723Y-115029737D02*
X144653056Y-115029737D01*
X144653056Y-115029737D02*
X144754656Y-114995870D01*
D10*
X112291069Y-61253349D02*
X111718649Y-61354365D01*
X111887008Y-60849288D02*
X111179901Y-61556395D01*
X111179901Y-61556395D02*
X111449275Y-61825769D01*
X111449275Y-61825769D02*
X111550290Y-61859441D01*
X111550290Y-61859441D02*
X111617634Y-61859441D01*
X111617634Y-61859441D02*
X111718649Y-61825769D01*
X111718649Y-61825769D02*
X111819664Y-61724754D01*
X111819664Y-61724754D02*
X111853336Y-61623739D01*
X111853336Y-61623739D02*
X111853336Y-61556395D01*
X111853336Y-61556395D02*
X111819664Y-61455380D01*
X111819664Y-61455380D02*
X111550290Y-61186006D01*
X112223725Y-61926784D02*
X112459427Y-62162487D01*
X112930832Y-61893113D02*
X112594114Y-61556395D01*
X112594114Y-61556395D02*
X111887008Y-62263502D01*
X111887008Y-62263502D02*
X112223725Y-62600219D01*
X113233878Y-62196158D02*
X112526771Y-62903265D01*
X112526771Y-62903265D02*
X112695130Y-63071624D01*
X112695130Y-63071624D02*
X112829817Y-63138967D01*
X112829817Y-63138967D02*
X112964504Y-63138967D01*
X112964504Y-63138967D02*
X113065519Y-63105296D01*
X113065519Y-63105296D02*
X113233878Y-63004280D01*
X113233878Y-63004280D02*
X113334893Y-62903265D01*
X113334893Y-62903265D02*
X113435908Y-62734906D01*
X113435908Y-62734906D02*
X113469580Y-62633891D01*
X113469580Y-62633891D02*
X113469580Y-62499204D01*
X113469580Y-62499204D02*
X113402237Y-62364517D01*
X113402237Y-62364517D02*
X113233878Y-62196158D01*
D11*
X150698256Y-110263537D02*
X150698256Y-110974737D01*
X150698256Y-110974737D02*
X150935323Y-110466737D01*
X150935323Y-110466737D02*
X151172389Y-110974737D01*
X151172389Y-110974737D02*
X151172389Y-110263537D01*
X151646523Y-110974737D02*
X151781989Y-110974737D01*
X151781989Y-110974737D02*
X151849723Y-110940870D01*
X151849723Y-110940870D02*
X151917456Y-110873137D01*
X151917456Y-110873137D02*
X151951323Y-110737670D01*
X151951323Y-110737670D02*
X151951323Y-110500604D01*
X151951323Y-110500604D02*
X151917456Y-110365137D01*
X151917456Y-110365137D02*
X151849723Y-110297404D01*
X151849723Y-110297404D02*
X151781989Y-110263537D01*
X151781989Y-110263537D02*
X151646523Y-110263537D01*
X151646523Y-110263537D02*
X151578789Y-110297404D01*
X151578789Y-110297404D02*
X151511056Y-110365137D01*
X151511056Y-110365137D02*
X151477189Y-110500604D01*
X151477189Y-110500604D02*
X151477189Y-110737670D01*
X151477189Y-110737670D02*
X151511056Y-110873137D01*
X151511056Y-110873137D02*
X151578789Y-110940870D01*
X151578789Y-110940870D02*
X151646523Y-110974737D01*
X152222256Y-110297404D02*
X152323856Y-110263537D01*
X152323856Y-110263537D02*
X152493190Y-110263537D01*
X152493190Y-110263537D02*
X152560923Y-110297404D01*
X152560923Y-110297404D02*
X152594790Y-110331270D01*
X152594790Y-110331270D02*
X152628656Y-110399004D01*
X152628656Y-110399004D02*
X152628656Y-110466737D01*
X152628656Y-110466737D02*
X152594790Y-110534470D01*
X152594790Y-110534470D02*
X152560923Y-110568337D01*
X152560923Y-110568337D02*
X152493190Y-110602204D01*
X152493190Y-110602204D02*
X152357723Y-110636070D01*
X152357723Y-110636070D02*
X152289990Y-110669937D01*
X152289990Y-110669937D02*
X152256123Y-110703804D01*
X152256123Y-110703804D02*
X152222256Y-110771537D01*
X152222256Y-110771537D02*
X152222256Y-110839270D01*
X152222256Y-110839270D02*
X152256123Y-110907004D01*
X152256123Y-110907004D02*
X152289990Y-110940870D01*
X152289990Y-110940870D02*
X152357723Y-110974737D01*
X152357723Y-110974737D02*
X152527056Y-110974737D01*
X152527056Y-110974737D02*
X152628656Y-110940870D01*
X152933456Y-110263537D02*
X152933456Y-110974737D01*
D10*
X114352321Y-58723380D02*
X114487008Y-58790723D01*
X114487008Y-58790723D02*
X114554351Y-58790723D01*
X114554351Y-58790723D02*
X114655366Y-58757052D01*
X114655366Y-58757052D02*
X114756382Y-58656036D01*
X114756382Y-58656036D02*
X114790053Y-58555021D01*
X114790053Y-58555021D02*
X114790053Y-58487678D01*
X114790053Y-58487678D02*
X114756382Y-58386662D01*
X114756382Y-58386662D02*
X114487008Y-58117288D01*
X114487008Y-58117288D02*
X113779901Y-58824395D01*
X113779901Y-58824395D02*
X114015603Y-59060097D01*
X114015603Y-59060097D02*
X114116618Y-59093769D01*
X114116618Y-59093769D02*
X114183962Y-59093769D01*
X114183962Y-59093769D02*
X114284977Y-59060097D01*
X114284977Y-59060097D02*
X114352321Y-58992754D01*
X114352321Y-58992754D02*
X114385992Y-58891739D01*
X114385992Y-58891739D02*
X114385992Y-58824395D01*
X114385992Y-58824395D02*
X114352321Y-58723380D01*
X114352321Y-58723380D02*
X114116618Y-58487678D01*
X115530832Y-59161113D02*
X115194114Y-58824395D01*
X115194114Y-58824395D02*
X114487008Y-59531502D01*
X115059428Y-60103922D02*
X115631847Y-59531502D01*
X115631847Y-59531502D02*
X115732863Y-59497830D01*
X115732863Y-59497830D02*
X115800206Y-59497830D01*
X115800206Y-59497830D02*
X115901221Y-59531502D01*
X115901221Y-59531502D02*
X116035908Y-59666189D01*
X116035908Y-59666189D02*
X116069580Y-59767204D01*
X116069580Y-59767204D02*
X116069580Y-59834548D01*
X116069580Y-59834548D02*
X116035908Y-59935563D01*
X116035908Y-59935563D02*
X115463489Y-60507983D01*
X116136924Y-60507983D02*
X116372626Y-60743685D01*
X116844030Y-60474311D02*
X116507313Y-60137593D01*
X116507313Y-60137593D02*
X115800206Y-60844700D01*
X115800206Y-60844700D02*
X116136924Y-61181418D01*
D11*
X148852523Y-114386270D02*
X148818656Y-114352404D01*
X148818656Y-114352404D02*
X148717056Y-114318537D01*
X148717056Y-114318537D02*
X148649323Y-114318537D01*
X148649323Y-114318537D02*
X148547723Y-114352404D01*
X148547723Y-114352404D02*
X148479990Y-114420137D01*
X148479990Y-114420137D02*
X148446123Y-114487870D01*
X148446123Y-114487870D02*
X148412256Y-114623337D01*
X148412256Y-114623337D02*
X148412256Y-114724937D01*
X148412256Y-114724937D02*
X148446123Y-114860404D01*
X148446123Y-114860404D02*
X148479990Y-114928137D01*
X148479990Y-114928137D02*
X148547723Y-114995870D01*
X148547723Y-114995870D02*
X148649323Y-115029737D01*
X148649323Y-115029737D02*
X148717056Y-115029737D01*
X148717056Y-115029737D02*
X148818656Y-114995870D01*
X148818656Y-114995870D02*
X148852523Y-114962004D01*
X149495990Y-114318537D02*
X149157323Y-114318537D01*
X149157323Y-114318537D02*
X149157323Y-115029737D01*
X149733056Y-114318537D02*
X149733056Y-115029737D01*
X150139456Y-114318537D02*
X149834656Y-114724937D01*
X150139456Y-115029737D02*
X149733056Y-114623337D01*
D10*
X155606650Y-82474780D02*
X155939983Y-81474780D01*
X155939983Y-81474780D02*
X156273316Y-82474780D01*
X157082840Y-81474780D02*
X156606650Y-81474780D01*
X156606650Y-81474780D02*
X156606650Y-82474780D01*
X157892364Y-82474780D02*
X157416174Y-82474780D01*
X157416174Y-82474780D02*
X157368555Y-81998590D01*
X157368555Y-81998590D02*
X157416174Y-82046209D01*
X157416174Y-82046209D02*
X157511412Y-82093828D01*
X157511412Y-82093828D02*
X157749507Y-82093828D01*
X157749507Y-82093828D02*
X157844745Y-82046209D01*
X157844745Y-82046209D02*
X157892364Y-81998590D01*
X157892364Y-81998590D02*
X157939983Y-81903352D01*
X157939983Y-81903352D02*
X157939983Y-81665257D01*
X157939983Y-81665257D02*
X157892364Y-81570019D01*
X157892364Y-81570019D02*
X157844745Y-81522400D01*
X157844745Y-81522400D02*
X157749507Y-81474780D01*
X157749507Y-81474780D02*
X157511412Y-81474780D01*
X157511412Y-81474780D02*
X157416174Y-81522400D01*
X157416174Y-81522400D02*
X157368555Y-81570019D01*
X158273317Y-82474780D02*
X158892364Y-82474780D01*
X158892364Y-82474780D02*
X158559031Y-82093828D01*
X158559031Y-82093828D02*
X158701888Y-82093828D01*
X158701888Y-82093828D02*
X158797126Y-82046209D01*
X158797126Y-82046209D02*
X158844745Y-81998590D01*
X158844745Y-81998590D02*
X158892364Y-81903352D01*
X158892364Y-81903352D02*
X158892364Y-81665257D01*
X158892364Y-81665257D02*
X158844745Y-81570019D01*
X158844745Y-81570019D02*
X158797126Y-81522400D01*
X158797126Y-81522400D02*
X158701888Y-81474780D01*
X158701888Y-81474780D02*
X158416174Y-81474780D01*
X158416174Y-81474780D02*
X158320936Y-81522400D01*
X158320936Y-81522400D02*
X158273317Y-81570019D01*
X159797126Y-81474780D02*
X159320936Y-81474780D01*
X159320936Y-81474780D02*
X159320936Y-82474780D01*
X160654269Y-81474780D02*
X160082841Y-81474780D01*
X160368555Y-81474780D02*
X160368555Y-82474780D01*
X160368555Y-82474780D02*
X160273317Y-82331923D01*
X160273317Y-82331923D02*
X160178079Y-82236685D01*
X160178079Y-82236685D02*
X160082841Y-82189066D01*
X160987603Y-82474780D02*
X161654269Y-81474780D01*
X161654269Y-82474780D02*
X160987603Y-81474780D01*
X162654270Y-82474780D02*
X163225698Y-82474780D01*
X162939984Y-81474780D02*
X162939984Y-82474780D01*
X163701889Y-81474780D02*
X163606651Y-81522400D01*
X163606651Y-81522400D02*
X163559032Y-81570019D01*
X163559032Y-81570019D02*
X163511413Y-81665257D01*
X163511413Y-81665257D02*
X163511413Y-81950971D01*
X163511413Y-81950971D02*
X163559032Y-82046209D01*
X163559032Y-82046209D02*
X163606651Y-82093828D01*
X163606651Y-82093828D02*
X163701889Y-82141447D01*
X163701889Y-82141447D02*
X163844746Y-82141447D01*
X163844746Y-82141447D02*
X163939984Y-82093828D01*
X163939984Y-82093828D02*
X163987603Y-82046209D01*
X163987603Y-82046209D02*
X164035222Y-81950971D01*
X164035222Y-81950971D02*
X164035222Y-81665257D01*
X164035222Y-81665257D02*
X163987603Y-81570019D01*
X163987603Y-81570019D02*
X163939984Y-81522400D01*
X163939984Y-81522400D02*
X163844746Y-81474780D01*
X163844746Y-81474780D02*
X163701889Y-81474780D01*
X164797127Y-81998590D02*
X164463794Y-81998590D01*
X164463794Y-81474780D02*
X164463794Y-82474780D01*
X164463794Y-82474780D02*
X164939984Y-82474780D01*
X136374173Y-106799780D02*
X136374173Y-107799780D01*
X136374173Y-107799780D02*
X136755125Y-107799780D01*
X136755125Y-107799780D02*
X136850363Y-107752161D01*
X136850363Y-107752161D02*
X136897982Y-107704542D01*
X136897982Y-107704542D02*
X136945601Y-107609304D01*
X136945601Y-107609304D02*
X136945601Y-107466447D01*
X136945601Y-107466447D02*
X136897982Y-107371209D01*
X136897982Y-107371209D02*
X136850363Y-107323590D01*
X136850363Y-107323590D02*
X136755125Y-107275971D01*
X136755125Y-107275971D02*
X136374173Y-107275971D01*
X137374173Y-106799780D02*
X137374173Y-107799780D01*
X137374173Y-107799780D02*
X137707506Y-107085495D01*
X137707506Y-107085495D02*
X138040839Y-107799780D01*
X138040839Y-107799780D02*
X138040839Y-106799780D01*
X138421792Y-107799780D02*
X138659887Y-106799780D01*
X138659887Y-106799780D02*
X138850363Y-107514066D01*
X138850363Y-107514066D02*
X139040839Y-106799780D01*
X139040839Y-106799780D02*
X139278935Y-107799780D01*
X139564649Y-107799780D02*
X140183696Y-107799780D01*
X140183696Y-107799780D02*
X139850363Y-107418828D01*
X139850363Y-107418828D02*
X139993220Y-107418828D01*
X139993220Y-107418828D02*
X140088458Y-107371209D01*
X140088458Y-107371209D02*
X140136077Y-107323590D01*
X140136077Y-107323590D02*
X140183696Y-107228352D01*
X140183696Y-107228352D02*
X140183696Y-106990257D01*
X140183696Y-106990257D02*
X140136077Y-106895019D01*
X140136077Y-106895019D02*
X140088458Y-106847400D01*
X140088458Y-106847400D02*
X139993220Y-106799780D01*
X139993220Y-106799780D02*
X139707506Y-106799780D01*
X139707506Y-106799780D02*
X139612268Y-106847400D01*
X139612268Y-106847400D02*
X139564649Y-106895019D01*
X140659887Y-106799780D02*
X140850363Y-106799780D01*
X140850363Y-106799780D02*
X140945601Y-106847400D01*
X140945601Y-106847400D02*
X140993220Y-106895019D01*
X140993220Y-106895019D02*
X141088458Y-107037876D01*
X141088458Y-107037876D02*
X141136077Y-107228352D01*
X141136077Y-107228352D02*
X141136077Y-107609304D01*
X141136077Y-107609304D02*
X141088458Y-107704542D01*
X141088458Y-107704542D02*
X141040839Y-107752161D01*
X141040839Y-107752161D02*
X140945601Y-107799780D01*
X140945601Y-107799780D02*
X140755125Y-107799780D01*
X140755125Y-107799780D02*
X140659887Y-107752161D01*
X140659887Y-107752161D02*
X140612268Y-107704542D01*
X140612268Y-107704542D02*
X140564649Y-107609304D01*
X140564649Y-107609304D02*
X140564649Y-107371209D01*
X140564649Y-107371209D02*
X140612268Y-107275971D01*
X140612268Y-107275971D02*
X140659887Y-107228352D01*
X140659887Y-107228352D02*
X140755125Y-107180733D01*
X140755125Y-107180733D02*
X140945601Y-107180733D01*
X140945601Y-107180733D02*
X141040839Y-107228352D01*
X141040839Y-107228352D02*
X141088458Y-107275971D01*
X141088458Y-107275971D02*
X141136077Y-107371209D01*
X141755125Y-107799780D02*
X141850363Y-107799780D01*
X141850363Y-107799780D02*
X141945601Y-107752161D01*
X141945601Y-107752161D02*
X141993220Y-107704542D01*
X141993220Y-107704542D02*
X142040839Y-107609304D01*
X142040839Y-107609304D02*
X142088458Y-107418828D01*
X142088458Y-107418828D02*
X142088458Y-107180733D01*
X142088458Y-107180733D02*
X142040839Y-106990257D01*
X142040839Y-106990257D02*
X141993220Y-106895019D01*
X141993220Y-106895019D02*
X141945601Y-106847400D01*
X141945601Y-106847400D02*
X141850363Y-106799780D01*
X141850363Y-106799780D02*
X141755125Y-106799780D01*
X141755125Y-106799780D02*
X141659887Y-106847400D01*
X141659887Y-106847400D02*
X141612268Y-106895019D01*
X141612268Y-106895019D02*
X141564649Y-106990257D01*
X141564649Y-106990257D02*
X141517030Y-107180733D01*
X141517030Y-107180733D02*
X141517030Y-107418828D01*
X141517030Y-107418828D02*
X141564649Y-107609304D01*
X141564649Y-107609304D02*
X141612268Y-107704542D01*
X141612268Y-107704542D02*
X141659887Y-107752161D01*
X141659887Y-107752161D02*
X141755125Y-107799780D01*
X143040839Y-106799780D02*
X142469411Y-106799780D01*
X142755125Y-106799780D02*
X142755125Y-107799780D01*
X142755125Y-107799780D02*
X142659887Y-107656923D01*
X142659887Y-107656923D02*
X142564649Y-107561685D01*
X142564649Y-107561685D02*
X142469411Y-107514066D01*
X144421792Y-107799780D02*
X144612268Y-107799780D01*
X144612268Y-107799780D02*
X144707506Y-107752161D01*
X144707506Y-107752161D02*
X144802744Y-107656923D01*
X144802744Y-107656923D02*
X144850363Y-107466447D01*
X144850363Y-107466447D02*
X144850363Y-107133114D01*
X144850363Y-107133114D02*
X144802744Y-106942638D01*
X144802744Y-106942638D02*
X144707506Y-106847400D01*
X144707506Y-106847400D02*
X144612268Y-106799780D01*
X144612268Y-106799780D02*
X144421792Y-106799780D01*
X144421792Y-106799780D02*
X144326554Y-106847400D01*
X144326554Y-106847400D02*
X144231316Y-106942638D01*
X144231316Y-106942638D02*
X144183697Y-107133114D01*
X144183697Y-107133114D02*
X144183697Y-107466447D01*
X144183697Y-107466447D02*
X144231316Y-107656923D01*
X144231316Y-107656923D02*
X144326554Y-107752161D01*
X144326554Y-107752161D02*
X144421792Y-107799780D01*
X145278935Y-107466447D02*
X145278935Y-106466447D01*
X145278935Y-107418828D02*
X145374173Y-107466447D01*
X145374173Y-107466447D02*
X145564649Y-107466447D01*
X145564649Y-107466447D02*
X145659887Y-107418828D01*
X145659887Y-107418828D02*
X145707506Y-107371209D01*
X145707506Y-107371209D02*
X145755125Y-107275971D01*
X145755125Y-107275971D02*
X145755125Y-106990257D01*
X145755125Y-106990257D02*
X145707506Y-106895019D01*
X145707506Y-106895019D02*
X145659887Y-106847400D01*
X145659887Y-106847400D02*
X145564649Y-106799780D01*
X145564649Y-106799780D02*
X145374173Y-106799780D01*
X145374173Y-106799780D02*
X145278935Y-106847400D01*
X146040840Y-107466447D02*
X146421792Y-107466447D01*
X146183697Y-107799780D02*
X146183697Y-106942638D01*
X146183697Y-106942638D02*
X146231316Y-106847400D01*
X146231316Y-106847400D02*
X146326554Y-106799780D01*
X146326554Y-106799780D02*
X146421792Y-106799780D01*
X146755126Y-106799780D02*
X146755126Y-107466447D01*
X146755126Y-107799780D02*
X146707507Y-107752161D01*
X146707507Y-107752161D02*
X146755126Y-107704542D01*
X146755126Y-107704542D02*
X146802745Y-107752161D01*
X146802745Y-107752161D02*
X146755126Y-107799780D01*
X146755126Y-107799780D02*
X146755126Y-107704542D01*
X147659887Y-106847400D02*
X147564649Y-106799780D01*
X147564649Y-106799780D02*
X147374173Y-106799780D01*
X147374173Y-106799780D02*
X147278935Y-106847400D01*
X147278935Y-106847400D02*
X147231316Y-106895019D01*
X147231316Y-106895019D02*
X147183697Y-106990257D01*
X147183697Y-106990257D02*
X147183697Y-107275971D01*
X147183697Y-107275971D02*
X147231316Y-107371209D01*
X147231316Y-107371209D02*
X147278935Y-107418828D01*
X147278935Y-107418828D02*
X147374173Y-107466447D01*
X147374173Y-107466447D02*
X147564649Y-107466447D01*
X147564649Y-107466447D02*
X147659887Y-107418828D01*
X148517030Y-106799780D02*
X148517030Y-107323590D01*
X148517030Y-107323590D02*
X148469411Y-107418828D01*
X148469411Y-107418828D02*
X148374173Y-107466447D01*
X148374173Y-107466447D02*
X148183697Y-107466447D01*
X148183697Y-107466447D02*
X148088459Y-107418828D01*
X148517030Y-106847400D02*
X148421792Y-106799780D01*
X148421792Y-106799780D02*
X148183697Y-106799780D01*
X148183697Y-106799780D02*
X148088459Y-106847400D01*
X148088459Y-106847400D02*
X148040840Y-106942638D01*
X148040840Y-106942638D02*
X148040840Y-107037876D01*
X148040840Y-107037876D02*
X148088459Y-107133114D01*
X148088459Y-107133114D02*
X148183697Y-107180733D01*
X148183697Y-107180733D02*
X148421792Y-107180733D01*
X148421792Y-107180733D02*
X148517030Y-107228352D01*
X149136078Y-106799780D02*
X149040840Y-106847400D01*
X149040840Y-106847400D02*
X148993221Y-106942638D01*
X148993221Y-106942638D02*
X148993221Y-107799780D01*
X150612269Y-107323590D02*
X150278936Y-107323590D01*
X150278936Y-106799780D02*
X150278936Y-107799780D01*
X150278936Y-107799780D02*
X150755126Y-107799780D01*
X151278936Y-106799780D02*
X151183698Y-106847400D01*
X151183698Y-106847400D02*
X151136079Y-106942638D01*
X151136079Y-106942638D02*
X151136079Y-107799780D01*
X151802746Y-106799780D02*
X151707508Y-106847400D01*
X151707508Y-106847400D02*
X151659889Y-106895019D01*
X151659889Y-106895019D02*
X151612270Y-106990257D01*
X151612270Y-106990257D02*
X151612270Y-107275971D01*
X151612270Y-107275971D02*
X151659889Y-107371209D01*
X151659889Y-107371209D02*
X151707508Y-107418828D01*
X151707508Y-107418828D02*
X151802746Y-107466447D01*
X151802746Y-107466447D02*
X151945603Y-107466447D01*
X151945603Y-107466447D02*
X152040841Y-107418828D01*
X152040841Y-107418828D02*
X152088460Y-107371209D01*
X152088460Y-107371209D02*
X152136079Y-107275971D01*
X152136079Y-107275971D02*
X152136079Y-106990257D01*
X152136079Y-106990257D02*
X152088460Y-106895019D01*
X152088460Y-106895019D02*
X152040841Y-106847400D01*
X152040841Y-106847400D02*
X151945603Y-106799780D01*
X151945603Y-106799780D02*
X151802746Y-106799780D01*
X152469413Y-107466447D02*
X152659889Y-106799780D01*
X152659889Y-106799780D02*
X152850365Y-107275971D01*
X152850365Y-107275971D02*
X153040841Y-106799780D01*
X153040841Y-106799780D02*
X153231317Y-107466447D01*
X154326556Y-106847400D02*
X154469413Y-106799780D01*
X154469413Y-106799780D02*
X154707508Y-106799780D01*
X154707508Y-106799780D02*
X154802746Y-106847400D01*
X154802746Y-106847400D02*
X154850365Y-106895019D01*
X154850365Y-106895019D02*
X154897984Y-106990257D01*
X154897984Y-106990257D02*
X154897984Y-107085495D01*
X154897984Y-107085495D02*
X154850365Y-107180733D01*
X154850365Y-107180733D02*
X154802746Y-107228352D01*
X154802746Y-107228352D02*
X154707508Y-107275971D01*
X154707508Y-107275971D02*
X154517032Y-107323590D01*
X154517032Y-107323590D02*
X154421794Y-107371209D01*
X154421794Y-107371209D02*
X154374175Y-107418828D01*
X154374175Y-107418828D02*
X154326556Y-107514066D01*
X154326556Y-107514066D02*
X154326556Y-107609304D01*
X154326556Y-107609304D02*
X154374175Y-107704542D01*
X154374175Y-107704542D02*
X154421794Y-107752161D01*
X154421794Y-107752161D02*
X154517032Y-107799780D01*
X154517032Y-107799780D02*
X154755127Y-107799780D01*
X154755127Y-107799780D02*
X154897984Y-107752161D01*
X155707508Y-106847400D02*
X155612270Y-106799780D01*
X155612270Y-106799780D02*
X155421794Y-106799780D01*
X155421794Y-106799780D02*
X155326556Y-106847400D01*
X155326556Y-106847400D02*
X155278937Y-106942638D01*
X155278937Y-106942638D02*
X155278937Y-107323590D01*
X155278937Y-107323590D02*
X155326556Y-107418828D01*
X155326556Y-107418828D02*
X155421794Y-107466447D01*
X155421794Y-107466447D02*
X155612270Y-107466447D01*
X155612270Y-107466447D02*
X155707508Y-107418828D01*
X155707508Y-107418828D02*
X155755127Y-107323590D01*
X155755127Y-107323590D02*
X155755127Y-107228352D01*
X155755127Y-107228352D02*
X155278937Y-107133114D01*
X156183699Y-107466447D02*
X156183699Y-106799780D01*
X156183699Y-107371209D02*
X156231318Y-107418828D01*
X156231318Y-107418828D02*
X156326556Y-107466447D01*
X156326556Y-107466447D02*
X156469413Y-107466447D01*
X156469413Y-107466447D02*
X156564651Y-107418828D01*
X156564651Y-107418828D02*
X156612270Y-107323590D01*
X156612270Y-107323590D02*
X156612270Y-106799780D01*
X157040842Y-106847400D02*
X157136080Y-106799780D01*
X157136080Y-106799780D02*
X157326556Y-106799780D01*
X157326556Y-106799780D02*
X157421794Y-106847400D01*
X157421794Y-106847400D02*
X157469413Y-106942638D01*
X157469413Y-106942638D02*
X157469413Y-106990257D01*
X157469413Y-106990257D02*
X157421794Y-107085495D01*
X157421794Y-107085495D02*
X157326556Y-107133114D01*
X157326556Y-107133114D02*
X157183699Y-107133114D01*
X157183699Y-107133114D02*
X157088461Y-107180733D01*
X157088461Y-107180733D02*
X157040842Y-107275971D01*
X157040842Y-107275971D02*
X157040842Y-107323590D01*
X157040842Y-107323590D02*
X157088461Y-107418828D01*
X157088461Y-107418828D02*
X157183699Y-107466447D01*
X157183699Y-107466447D02*
X157326556Y-107466447D01*
X157326556Y-107466447D02*
X157421794Y-107418828D01*
X158040842Y-106799780D02*
X157945604Y-106847400D01*
X157945604Y-106847400D02*
X157897985Y-106895019D01*
X157897985Y-106895019D02*
X157850366Y-106990257D01*
X157850366Y-106990257D02*
X157850366Y-107275971D01*
X157850366Y-107275971D02*
X157897985Y-107371209D01*
X157897985Y-107371209D02*
X157945604Y-107418828D01*
X157945604Y-107418828D02*
X158040842Y-107466447D01*
X158040842Y-107466447D02*
X158183699Y-107466447D01*
X158183699Y-107466447D02*
X158278937Y-107418828D01*
X158278937Y-107418828D02*
X158326556Y-107371209D01*
X158326556Y-107371209D02*
X158374175Y-107275971D01*
X158374175Y-107275971D02*
X158374175Y-106990257D01*
X158374175Y-106990257D02*
X158326556Y-106895019D01*
X158326556Y-106895019D02*
X158278937Y-106847400D01*
X158278937Y-106847400D02*
X158183699Y-106799780D01*
X158183699Y-106799780D02*
X158040842Y-106799780D01*
X158802747Y-106799780D02*
X158802747Y-107466447D01*
X158802747Y-107275971D02*
X158850366Y-107371209D01*
X158850366Y-107371209D02*
X158897985Y-107418828D01*
X158897985Y-107418828D02*
X158993223Y-107466447D01*
X158993223Y-107466447D02*
X159088461Y-107466447D01*
D11*
X135781888Y-73561404D02*
X135883488Y-73527537D01*
X135883488Y-73527537D02*
X136052822Y-73527537D01*
X136052822Y-73527537D02*
X136120555Y-73561404D01*
X136120555Y-73561404D02*
X136154422Y-73595270D01*
X136154422Y-73595270D02*
X136188288Y-73663004D01*
X136188288Y-73663004D02*
X136188288Y-73730737D01*
X136188288Y-73730737D02*
X136154422Y-73798470D01*
X136154422Y-73798470D02*
X136120555Y-73832337D01*
X136120555Y-73832337D02*
X136052822Y-73866204D01*
X136052822Y-73866204D02*
X135917355Y-73900070D01*
X135917355Y-73900070D02*
X135849622Y-73933937D01*
X135849622Y-73933937D02*
X135815755Y-73967804D01*
X135815755Y-73967804D02*
X135781888Y-74035537D01*
X135781888Y-74035537D02*
X135781888Y-74103270D01*
X135781888Y-74103270D02*
X135815755Y-74171004D01*
X135815755Y-74171004D02*
X135849622Y-74204870D01*
X135849622Y-74204870D02*
X135917355Y-74238737D01*
X135917355Y-74238737D02*
X136086688Y-74238737D01*
X136086688Y-74238737D02*
X136188288Y-74204870D01*
X136493088Y-73527537D02*
X136493088Y-74238737D01*
X136493088Y-74238737D02*
X136662421Y-74238737D01*
X136662421Y-74238737D02*
X136764021Y-74204870D01*
X136764021Y-74204870D02*
X136831755Y-74137137D01*
X136831755Y-74137137D02*
X136865621Y-74069404D01*
X136865621Y-74069404D02*
X136899488Y-73933937D01*
X136899488Y-73933937D02*
X136899488Y-73832337D01*
X136899488Y-73832337D02*
X136865621Y-73696870D01*
X136865621Y-73696870D02*
X136831755Y-73629137D01*
X136831755Y-73629137D02*
X136764021Y-73561404D01*
X136764021Y-73561404D02*
X136662421Y-73527537D01*
X136662421Y-73527537D02*
X136493088Y-73527537D01*
X137170421Y-73730737D02*
X137509088Y-73730737D01*
X137102688Y-73527537D02*
X137339755Y-74238737D01*
X137339755Y-74238737D02*
X137576821Y-73527537D01*
X137746155Y-73527537D02*
X138118688Y-74001670D01*
X137746155Y-74001670D02*
X138118688Y-73527537D01*
X153813989Y-114995870D02*
X153746256Y-115029737D01*
X153746256Y-115029737D02*
X153644656Y-115029737D01*
X153644656Y-115029737D02*
X153543056Y-114995870D01*
X153543056Y-114995870D02*
X153475323Y-114928137D01*
X153475323Y-114928137D02*
X153441456Y-114860404D01*
X153441456Y-114860404D02*
X153407589Y-114724937D01*
X153407589Y-114724937D02*
X153407589Y-114623337D01*
X153407589Y-114623337D02*
X153441456Y-114487870D01*
X153441456Y-114487870D02*
X153475323Y-114420137D01*
X153475323Y-114420137D02*
X153543056Y-114352404D01*
X153543056Y-114352404D02*
X153644656Y-114318537D01*
X153644656Y-114318537D02*
X153712389Y-114318537D01*
X153712389Y-114318537D02*
X153813989Y-114352404D01*
X153813989Y-114352404D02*
X153847856Y-114386270D01*
X153847856Y-114386270D02*
X153847856Y-114623337D01*
X153847856Y-114623337D02*
X153712389Y-114623337D01*
X154152656Y-114318537D02*
X154152656Y-115029737D01*
X154152656Y-115029737D02*
X154559056Y-114318537D01*
X154559056Y-114318537D02*
X154559056Y-115029737D01*
X154897723Y-114318537D02*
X154897723Y-115029737D01*
X154897723Y-115029737D02*
X155067056Y-115029737D01*
X155067056Y-115029737D02*
X155168656Y-114995870D01*
X155168656Y-114995870D02*
X155236390Y-114928137D01*
X155236390Y-114928137D02*
X155270256Y-114860404D01*
X155270256Y-114860404D02*
X155304123Y-114724937D01*
X155304123Y-114724937D02*
X155304123Y-114623337D01*
X155304123Y-114623337D02*
X155270256Y-114487870D01*
X155270256Y-114487870D02*
X155236390Y-114420137D01*
X155236390Y-114420137D02*
X155168656Y-114352404D01*
X155168656Y-114352404D02*
X155067056Y-114318537D01*
X155067056Y-114318537D02*
X154897723Y-114318537D01*
D10*
X114374552Y-130995942D02*
X113835804Y-130120476D01*
X113835804Y-130120476D02*
X114475567Y-130490865D01*
X114475567Y-130490865D02*
X114105178Y-129851102D01*
X114105178Y-129851102D02*
X114980643Y-130389850D01*
X114542910Y-129413369D02*
X115250017Y-130120476D01*
X114913299Y-129783759D02*
X115317360Y-129379698D01*
X114946971Y-129009308D02*
X115654078Y-129716415D01*
X115283689Y-128672591D02*
X115990795Y-129379698D01*
X116226497Y-129143996D02*
X116630558Y-128739935D01*
X115721421Y-128234858D02*
X116428528Y-128941965D01*
X116529543Y-128167515D02*
X116765246Y-127931813D01*
X116495872Y-127460408D02*
X116159154Y-127797126D01*
X116159154Y-127797126D02*
X116866261Y-128504232D01*
X116866261Y-128504232D02*
X117202978Y-128167515D01*
D11*
X131311489Y-74204870D02*
X131243756Y-74238737D01*
X131243756Y-74238737D02*
X131142156Y-74238737D01*
X131142156Y-74238737D02*
X131040556Y-74204870D01*
X131040556Y-74204870D02*
X130972823Y-74137137D01*
X130972823Y-74137137D02*
X130938956Y-74069404D01*
X130938956Y-74069404D02*
X130905089Y-73933937D01*
X130905089Y-73933937D02*
X130905089Y-73832337D01*
X130905089Y-73832337D02*
X130938956Y-73696870D01*
X130938956Y-73696870D02*
X130972823Y-73629137D01*
X130972823Y-73629137D02*
X131040556Y-73561404D01*
X131040556Y-73561404D02*
X131142156Y-73527537D01*
X131142156Y-73527537D02*
X131209889Y-73527537D01*
X131209889Y-73527537D02*
X131311489Y-73561404D01*
X131311489Y-73561404D02*
X131345356Y-73595270D01*
X131345356Y-73595270D02*
X131345356Y-73832337D01*
X131345356Y-73832337D02*
X131209889Y-73832337D01*
X131650156Y-73527537D02*
X131650156Y-74238737D01*
X131650156Y-74238737D02*
X132056556Y-73527537D01*
X132056556Y-73527537D02*
X132056556Y-74238737D01*
X132395223Y-73527537D02*
X132395223Y-74238737D01*
X132395223Y-74238737D02*
X132564556Y-74238737D01*
X132564556Y-74238737D02*
X132666156Y-74204870D01*
X132666156Y-74204870D02*
X132733890Y-74137137D01*
X132733890Y-74137137D02*
X132767756Y-74069404D01*
X132767756Y-74069404D02*
X132801623Y-73933937D01*
X132801623Y-73933937D02*
X132801623Y-73832337D01*
X132801623Y-73832337D02*
X132767756Y-73696870D01*
X132767756Y-73696870D02*
X132733890Y-73629137D01*
X132733890Y-73629137D02*
X132666156Y-73561404D01*
X132666156Y-73561404D02*
X132564556Y-73527537D01*
X132564556Y-73527537D02*
X132395223Y-73527537D01*
X138235322Y-114318537D02*
X138235322Y-115029737D01*
X138235322Y-115029737D02*
X138472389Y-114521737D01*
X138472389Y-114521737D02*
X138709455Y-115029737D01*
X138709455Y-115029737D02*
X138709455Y-114318537D01*
X139183589Y-115029737D02*
X139319055Y-115029737D01*
X139319055Y-115029737D02*
X139386789Y-114995870D01*
X139386789Y-114995870D02*
X139454522Y-114928137D01*
X139454522Y-114928137D02*
X139488389Y-114792670D01*
X139488389Y-114792670D02*
X139488389Y-114555604D01*
X139488389Y-114555604D02*
X139454522Y-114420137D01*
X139454522Y-114420137D02*
X139386789Y-114352404D01*
X139386789Y-114352404D02*
X139319055Y-114318537D01*
X139319055Y-114318537D02*
X139183589Y-114318537D01*
X139183589Y-114318537D02*
X139115855Y-114352404D01*
X139115855Y-114352404D02*
X139048122Y-114420137D01*
X139048122Y-114420137D02*
X139014255Y-114555604D01*
X139014255Y-114555604D02*
X139014255Y-114792670D01*
X139014255Y-114792670D02*
X139048122Y-114928137D01*
X139048122Y-114928137D02*
X139115855Y-114995870D01*
X139115855Y-114995870D02*
X139183589Y-115029737D01*
X139691589Y-115029737D02*
X140097989Y-115029737D01*
X139894789Y-114318537D02*
X139894789Y-115029737D01*
X155964336Y-110974737D02*
X156404602Y-110974737D01*
X156404602Y-110974737D02*
X156167536Y-110703804D01*
X156167536Y-110703804D02*
X156269136Y-110703804D01*
X156269136Y-110703804D02*
X156336869Y-110669937D01*
X156336869Y-110669937D02*
X156370736Y-110636070D01*
X156370736Y-110636070D02*
X156404602Y-110568337D01*
X156404602Y-110568337D02*
X156404602Y-110399004D01*
X156404602Y-110399004D02*
X156370736Y-110331270D01*
X156370736Y-110331270D02*
X156336869Y-110297404D01*
X156336869Y-110297404D02*
X156269136Y-110263537D01*
X156269136Y-110263537D02*
X156065936Y-110263537D01*
X156065936Y-110263537D02*
X155998202Y-110297404D01*
X155998202Y-110297404D02*
X155964336Y-110331270D01*
X156607802Y-110974737D02*
X156844869Y-110263537D01*
X156844869Y-110263537D02*
X157081935Y-110974737D01*
X157251269Y-110974737D02*
X157691535Y-110974737D01*
X157691535Y-110974737D02*
X157454469Y-110703804D01*
X157454469Y-110703804D02*
X157556069Y-110703804D01*
X157556069Y-110703804D02*
X157623802Y-110669937D01*
X157623802Y-110669937D02*
X157657669Y-110636070D01*
X157657669Y-110636070D02*
X157691535Y-110568337D01*
X157691535Y-110568337D02*
X157691535Y-110399004D01*
X157691535Y-110399004D02*
X157657669Y-110331270D01*
X157657669Y-110331270D02*
X157623802Y-110297404D01*
X157623802Y-110297404D02*
X157556069Y-110263537D01*
X157556069Y-110263537D02*
X157352869Y-110263537D01*
X157352869Y-110263537D02*
X157285135Y-110297404D01*
X157285135Y-110297404D02*
X157251269Y-110331270D01*
X141266389Y-110263537D02*
X141029322Y-110602204D01*
X140859989Y-110263537D02*
X140859989Y-110974737D01*
X140859989Y-110974737D02*
X141130922Y-110974737D01*
X141130922Y-110974737D02*
X141198656Y-110940870D01*
X141198656Y-110940870D02*
X141232522Y-110907004D01*
X141232522Y-110907004D02*
X141266389Y-110839270D01*
X141266389Y-110839270D02*
X141266389Y-110737670D01*
X141266389Y-110737670D02*
X141232522Y-110669937D01*
X141232522Y-110669937D02*
X141198656Y-110636070D01*
X141198656Y-110636070D02*
X141130922Y-110602204D01*
X141130922Y-110602204D02*
X140859989Y-110602204D01*
X141537322Y-110297404D02*
X141638922Y-110263537D01*
X141638922Y-110263537D02*
X141808256Y-110263537D01*
X141808256Y-110263537D02*
X141875989Y-110297404D01*
X141875989Y-110297404D02*
X141909856Y-110331270D01*
X141909856Y-110331270D02*
X141943722Y-110399004D01*
X141943722Y-110399004D02*
X141943722Y-110466737D01*
X141943722Y-110466737D02*
X141909856Y-110534470D01*
X141909856Y-110534470D02*
X141875989Y-110568337D01*
X141875989Y-110568337D02*
X141808256Y-110602204D01*
X141808256Y-110602204D02*
X141672789Y-110636070D01*
X141672789Y-110636070D02*
X141605056Y-110669937D01*
X141605056Y-110669937D02*
X141571189Y-110703804D01*
X141571189Y-110703804D02*
X141537322Y-110771537D01*
X141537322Y-110771537D02*
X141537322Y-110839270D01*
X141537322Y-110839270D02*
X141571189Y-110907004D01*
X141571189Y-110907004D02*
X141605056Y-110940870D01*
X141605056Y-110940870D02*
X141672789Y-110974737D01*
X141672789Y-110974737D02*
X141842122Y-110974737D01*
X141842122Y-110974737D02*
X141943722Y-110940870D01*
X142146922Y-110974737D02*
X142553322Y-110974737D01*
X142350122Y-110263537D02*
X142350122Y-110974737D01*
X145618256Y-110263537D02*
X145618256Y-110974737D01*
X145618256Y-110974737D02*
X145855323Y-110466737D01*
X145855323Y-110466737D02*
X146092389Y-110974737D01*
X146092389Y-110974737D02*
X146092389Y-110263537D01*
X146431056Y-110263537D02*
X146431056Y-110974737D01*
X146735856Y-110297404D02*
X146837456Y-110263537D01*
X146837456Y-110263537D02*
X147006790Y-110263537D01*
X147006790Y-110263537D02*
X147074523Y-110297404D01*
X147074523Y-110297404D02*
X147108390Y-110331270D01*
X147108390Y-110331270D02*
X147142256Y-110399004D01*
X147142256Y-110399004D02*
X147142256Y-110466737D01*
X147142256Y-110466737D02*
X147108390Y-110534470D01*
X147108390Y-110534470D02*
X147074523Y-110568337D01*
X147074523Y-110568337D02*
X147006790Y-110602204D01*
X147006790Y-110602204D02*
X146871323Y-110636070D01*
X146871323Y-110636070D02*
X146803590Y-110669937D01*
X146803590Y-110669937D02*
X146769723Y-110703804D01*
X146769723Y-110703804D02*
X146735856Y-110771537D01*
X146735856Y-110771537D02*
X146735856Y-110839270D01*
X146735856Y-110839270D02*
X146769723Y-110907004D01*
X146769723Y-110907004D02*
X146803590Y-110940870D01*
X146803590Y-110940870D02*
X146871323Y-110974737D01*
X146871323Y-110974737D02*
X147040656Y-110974737D01*
X147040656Y-110974737D02*
X147142256Y-110940870D01*
X147582523Y-110974737D02*
X147717989Y-110974737D01*
X147717989Y-110974737D02*
X147785723Y-110940870D01*
X147785723Y-110940870D02*
X147853456Y-110873137D01*
X147853456Y-110873137D02*
X147887323Y-110737670D01*
X147887323Y-110737670D02*
X147887323Y-110500604D01*
X147887323Y-110500604D02*
X147853456Y-110365137D01*
X147853456Y-110365137D02*
X147785723Y-110297404D01*
X147785723Y-110297404D02*
X147717989Y-110263537D01*
X147717989Y-110263537D02*
X147582523Y-110263537D01*
X147582523Y-110263537D02*
X147514789Y-110297404D01*
X147514789Y-110297404D02*
X147447056Y-110365137D01*
X147447056Y-110365137D02*
X147413189Y-110500604D01*
X147413189Y-110500604D02*
X147413189Y-110737670D01*
X147413189Y-110737670D02*
X147447056Y-110873137D01*
X147447056Y-110873137D02*
X147514789Y-110940870D01*
X147514789Y-110940870D02*
X147582523Y-110974737D01*
D10*
X111120880Y-127212178D02*
X111188223Y-127077491D01*
X111188223Y-127077491D02*
X111188223Y-127010148D01*
X111188223Y-127010148D02*
X111154552Y-126909133D01*
X111154552Y-126909133D02*
X111053536Y-126808117D01*
X111053536Y-126808117D02*
X110952521Y-126774446D01*
X110952521Y-126774446D02*
X110885178Y-126774446D01*
X110885178Y-126774446D02*
X110784162Y-126808117D01*
X110784162Y-126808117D02*
X110514788Y-127077491D01*
X110514788Y-127077491D02*
X111221895Y-127784598D01*
X111221895Y-127784598D02*
X111457597Y-127548896D01*
X111457597Y-127548896D02*
X111491269Y-127447881D01*
X111491269Y-127447881D02*
X111491269Y-127380537D01*
X111491269Y-127380537D02*
X111457597Y-127279522D01*
X111457597Y-127279522D02*
X111390254Y-127212178D01*
X111390254Y-127212178D02*
X111289239Y-127178507D01*
X111289239Y-127178507D02*
X111221895Y-127178507D01*
X111221895Y-127178507D02*
X111120880Y-127212178D01*
X111120880Y-127212178D02*
X110885178Y-127447881D01*
X111558613Y-126033667D02*
X111221895Y-126370385D01*
X111221895Y-126370385D02*
X111929002Y-127077491D01*
X111962674Y-126033667D02*
X112299391Y-125696949D01*
X111693300Y-125898980D02*
X112636109Y-126370384D01*
X112636109Y-126370384D02*
X112164704Y-125427575D01*
X112871811Y-124855156D02*
X112804468Y-124855156D01*
X112804468Y-124855156D02*
X112669781Y-124922499D01*
X112669781Y-124922499D02*
X112602437Y-124989843D01*
X112602437Y-124989843D02*
X112535094Y-125124530D01*
X112535094Y-125124530D02*
X112535094Y-125259217D01*
X112535094Y-125259217D02*
X112568765Y-125360232D01*
X112568765Y-125360232D02*
X112669781Y-125528591D01*
X112669781Y-125528591D02*
X112770796Y-125629606D01*
X112770796Y-125629606D02*
X112939155Y-125730621D01*
X112939155Y-125730621D02*
X113040170Y-125764293D01*
X113040170Y-125764293D02*
X113174857Y-125764293D01*
X113174857Y-125764293D02*
X113309544Y-125696949D01*
X113309544Y-125696949D02*
X113376887Y-125629606D01*
X113376887Y-125629606D02*
X113444231Y-125494919D01*
X113444231Y-125494919D02*
X113444231Y-125427575D01*
X113107513Y-124484766D02*
X113814620Y-125191873D01*
X113511574Y-124080705D02*
X113612590Y-124787812D01*
X114218681Y-124787812D02*
X113410559Y-124787812D01*
X130860268Y-81489411D02*
X130860268Y-82439411D01*
X130860268Y-82439411D02*
X131176935Y-81760840D01*
X131176935Y-81760840D02*
X131493601Y-82439411D01*
X131493601Y-82439411D02*
X131493601Y-81489411D01*
X131900744Y-81534650D02*
X132036458Y-81489411D01*
X132036458Y-81489411D02*
X132262649Y-81489411D01*
X132262649Y-81489411D02*
X132353125Y-81534650D01*
X132353125Y-81534650D02*
X132398363Y-81579888D01*
X132398363Y-81579888D02*
X132443601Y-81670364D01*
X132443601Y-81670364D02*
X132443601Y-81760840D01*
X132443601Y-81760840D02*
X132398363Y-81851316D01*
X132398363Y-81851316D02*
X132353125Y-81896554D01*
X132353125Y-81896554D02*
X132262649Y-81941792D01*
X132262649Y-81941792D02*
X132081696Y-81987030D01*
X132081696Y-81987030D02*
X131991220Y-82032269D01*
X131991220Y-82032269D02*
X131945982Y-82077507D01*
X131945982Y-82077507D02*
X131900744Y-82167983D01*
X131900744Y-82167983D02*
X131900744Y-82258459D01*
X131900744Y-82258459D02*
X131945982Y-82348935D01*
X131945982Y-82348935D02*
X131991220Y-82394173D01*
X131991220Y-82394173D02*
X132081696Y-82439411D01*
X132081696Y-82439411D02*
X132307887Y-82439411D01*
X132307887Y-82439411D02*
X132443601Y-82394173D01*
X133303125Y-82439411D02*
X132850744Y-82439411D01*
X132850744Y-82439411D02*
X132805506Y-81987030D01*
X132805506Y-81987030D02*
X132850744Y-82032269D01*
X132850744Y-82032269D02*
X132941220Y-82077507D01*
X132941220Y-82077507D02*
X133167411Y-82077507D01*
X133167411Y-82077507D02*
X133257887Y-82032269D01*
X133257887Y-82032269D02*
X133303125Y-81987030D01*
X133303125Y-81987030D02*
X133348363Y-81896554D01*
X133348363Y-81896554D02*
X133348363Y-81670364D01*
X133348363Y-81670364D02*
X133303125Y-81579888D01*
X133303125Y-81579888D02*
X133257887Y-81534650D01*
X133257887Y-81534650D02*
X133167411Y-81489411D01*
X133167411Y-81489411D02*
X132941220Y-81489411D01*
X132941220Y-81489411D02*
X132850744Y-81534650D01*
X132850744Y-81534650D02*
X132805506Y-81579888D01*
X134162649Y-82439411D02*
X133981696Y-82439411D01*
X133981696Y-82439411D02*
X133891220Y-82394173D01*
X133891220Y-82394173D02*
X133845982Y-82348935D01*
X133845982Y-82348935D02*
X133755506Y-82213221D01*
X133755506Y-82213221D02*
X133710268Y-82032269D01*
X133710268Y-82032269D02*
X133710268Y-81670364D01*
X133710268Y-81670364D02*
X133755506Y-81579888D01*
X133755506Y-81579888D02*
X133800744Y-81534650D01*
X133800744Y-81534650D02*
X133891220Y-81489411D01*
X133891220Y-81489411D02*
X134072173Y-81489411D01*
X134072173Y-81489411D02*
X134162649Y-81534650D01*
X134162649Y-81534650D02*
X134207887Y-81579888D01*
X134207887Y-81579888D02*
X134253125Y-81670364D01*
X134253125Y-81670364D02*
X134253125Y-81896554D01*
X134253125Y-81896554D02*
X134207887Y-81987030D01*
X134207887Y-81987030D02*
X134162649Y-82032269D01*
X134162649Y-82032269D02*
X134072173Y-82077507D01*
X134072173Y-82077507D02*
X133891220Y-82077507D01*
X133891220Y-82077507D02*
X133800744Y-82032269D01*
X133800744Y-82032269D02*
X133755506Y-81987030D01*
X133755506Y-81987030D02*
X133710268Y-81896554D01*
X135157887Y-81489411D02*
X134615030Y-81489411D01*
X134886458Y-81489411D02*
X134886458Y-82439411D01*
X134886458Y-82439411D02*
X134795982Y-82303697D01*
X134795982Y-82303697D02*
X134705506Y-82213221D01*
X134705506Y-82213221D02*
X134615030Y-82167983D01*
X136062649Y-81489411D02*
X135519792Y-81489411D01*
X135791220Y-81489411D02*
X135791220Y-82439411D01*
X135791220Y-82439411D02*
X135700744Y-82303697D01*
X135700744Y-82303697D02*
X135610268Y-82213221D01*
X135610268Y-82213221D02*
X135519792Y-82167983D01*
D11*
X133258822Y-77478517D02*
X133360422Y-77444650D01*
X133360422Y-77444650D02*
X133529756Y-77444650D01*
X133529756Y-77444650D02*
X133597489Y-77478517D01*
X133597489Y-77478517D02*
X133631356Y-77512383D01*
X133631356Y-77512383D02*
X133665222Y-77580117D01*
X133665222Y-77580117D02*
X133665222Y-77647850D01*
X133665222Y-77647850D02*
X133631356Y-77715583D01*
X133631356Y-77715583D02*
X133597489Y-77749450D01*
X133597489Y-77749450D02*
X133529756Y-77783317D01*
X133529756Y-77783317D02*
X133394289Y-77817183D01*
X133394289Y-77817183D02*
X133326556Y-77851050D01*
X133326556Y-77851050D02*
X133292689Y-77884917D01*
X133292689Y-77884917D02*
X133258822Y-77952650D01*
X133258822Y-77952650D02*
X133258822Y-78020383D01*
X133258822Y-78020383D02*
X133292689Y-78088117D01*
X133292689Y-78088117D02*
X133326556Y-78121983D01*
X133326556Y-78121983D02*
X133394289Y-78155850D01*
X133394289Y-78155850D02*
X133563622Y-78155850D01*
X133563622Y-78155850D02*
X133665222Y-78121983D01*
X134376422Y-77512383D02*
X134342555Y-77478517D01*
X134342555Y-77478517D02*
X134240955Y-77444650D01*
X134240955Y-77444650D02*
X134173222Y-77444650D01*
X134173222Y-77444650D02*
X134071622Y-77478517D01*
X134071622Y-77478517D02*
X134003889Y-77546250D01*
X134003889Y-77546250D02*
X133970022Y-77613983D01*
X133970022Y-77613983D02*
X133936155Y-77749450D01*
X133936155Y-77749450D02*
X133936155Y-77851050D01*
X133936155Y-77851050D02*
X133970022Y-77986517D01*
X133970022Y-77986517D02*
X134003889Y-78054250D01*
X134003889Y-78054250D02*
X134071622Y-78121983D01*
X134071622Y-78121983D02*
X134173222Y-78155850D01*
X134173222Y-78155850D02*
X134240955Y-78155850D01*
X134240955Y-78155850D02*
X134342555Y-78121983D01*
X134342555Y-78121983D02*
X134376422Y-78088117D01*
X135019889Y-77444650D02*
X134681222Y-77444650D01*
X134681222Y-77444650D02*
X134681222Y-78155850D01*
X135189222Y-77444650D02*
X135561755Y-77918783D01*
X135189222Y-77918783D02*
X135561755Y-77444650D01*
X128431210Y-78155850D02*
X128871476Y-78155850D01*
X128871476Y-78155850D02*
X128634410Y-77884917D01*
X128634410Y-77884917D02*
X128736010Y-77884917D01*
X128736010Y-77884917D02*
X128803743Y-77851050D01*
X128803743Y-77851050D02*
X128837610Y-77817183D01*
X128837610Y-77817183D02*
X128871476Y-77749450D01*
X128871476Y-77749450D02*
X128871476Y-77580117D01*
X128871476Y-77580117D02*
X128837610Y-77512383D01*
X128837610Y-77512383D02*
X128803743Y-77478517D01*
X128803743Y-77478517D02*
X128736010Y-77444650D01*
X128736010Y-77444650D02*
X128532810Y-77444650D01*
X128532810Y-77444650D02*
X128465076Y-77478517D01*
X128465076Y-77478517D02*
X128431210Y-77512383D01*
X129074676Y-78155850D02*
X129311743Y-77444650D01*
X129311743Y-77444650D02*
X129548809Y-78155850D01*
X129718143Y-78155850D02*
X130158409Y-78155850D01*
X130158409Y-78155850D02*
X129921343Y-77884917D01*
X129921343Y-77884917D02*
X130022943Y-77884917D01*
X130022943Y-77884917D02*
X130090676Y-77851050D01*
X130090676Y-77851050D02*
X130124543Y-77817183D01*
X130124543Y-77817183D02*
X130158409Y-77749450D01*
X130158409Y-77749450D02*
X130158409Y-77580117D01*
X130158409Y-77580117D02*
X130124543Y-77512383D01*
X130124543Y-77512383D02*
X130090676Y-77478517D01*
X130090676Y-77478517D02*
X130022943Y-77444650D01*
X130022943Y-77444650D02*
X129819743Y-77444650D01*
X129819743Y-77444650D02*
X129752009Y-77478517D01*
X129752009Y-77478517D02*
X129718143Y-77512383D01*
D10*
X181424880Y-62869178D02*
X181492223Y-62734491D01*
X181492223Y-62734491D02*
X181492223Y-62667148D01*
X181492223Y-62667148D02*
X181458552Y-62566133D01*
X181458552Y-62566133D02*
X181357536Y-62465117D01*
X181357536Y-62465117D02*
X181256521Y-62431446D01*
X181256521Y-62431446D02*
X181189178Y-62431446D01*
X181189178Y-62431446D02*
X181088162Y-62465117D01*
X181088162Y-62465117D02*
X180818788Y-62734491D01*
X180818788Y-62734491D02*
X181525895Y-63441598D01*
X181525895Y-63441598D02*
X181761597Y-63205896D01*
X181761597Y-63205896D02*
X181795269Y-63104881D01*
X181795269Y-63104881D02*
X181795269Y-63037537D01*
X181795269Y-63037537D02*
X181761597Y-62936522D01*
X181761597Y-62936522D02*
X181694254Y-62869178D01*
X181694254Y-62869178D02*
X181593239Y-62835507D01*
X181593239Y-62835507D02*
X181525895Y-62835507D01*
X181525895Y-62835507D02*
X181424880Y-62869178D01*
X181424880Y-62869178D02*
X181189178Y-63104881D01*
X181862613Y-61690667D02*
X181525895Y-62027385D01*
X181525895Y-62027385D02*
X182233002Y-62734491D01*
X182266674Y-61690667D02*
X182603391Y-61353949D01*
X181997300Y-61555980D02*
X182940109Y-62027384D01*
X182940109Y-62027384D02*
X182468704Y-61084575D01*
X183175811Y-60512156D02*
X183108468Y-60512156D01*
X183108468Y-60512156D02*
X182973781Y-60579499D01*
X182973781Y-60579499D02*
X182906437Y-60646843D01*
X182906437Y-60646843D02*
X182839094Y-60781530D01*
X182839094Y-60781530D02*
X182839094Y-60916217D01*
X182839094Y-60916217D02*
X182872765Y-61017232D01*
X182872765Y-61017232D02*
X182973781Y-61185591D01*
X182973781Y-61185591D02*
X183074796Y-61286606D01*
X183074796Y-61286606D02*
X183243155Y-61387621D01*
X183243155Y-61387621D02*
X183344170Y-61421293D01*
X183344170Y-61421293D02*
X183478857Y-61421293D01*
X183478857Y-61421293D02*
X183613544Y-61353949D01*
X183613544Y-61353949D02*
X183680887Y-61286606D01*
X183680887Y-61286606D02*
X183748231Y-61151919D01*
X183748231Y-61151919D02*
X183748231Y-61084575D01*
X183411513Y-60141766D02*
X184118620Y-60848873D01*
X183815574Y-59737705D02*
X183916590Y-60444812D01*
X184522681Y-60444812D02*
X183714559Y-60444812D01*
X178830552Y-60414942D02*
X178291804Y-59539476D01*
X178291804Y-59539476D02*
X178931567Y-59909865D01*
X178931567Y-59909865D02*
X178561178Y-59270102D01*
X178561178Y-59270102D02*
X179436643Y-59808850D01*
X178998910Y-58832369D02*
X179706017Y-59539476D01*
X179369299Y-59202759D02*
X179773360Y-58798698D01*
X179402971Y-58428308D02*
X180110078Y-59135415D01*
X179739689Y-58091591D02*
X180446795Y-58798698D01*
X180682497Y-58562996D02*
X181086558Y-58158935D01*
X180177421Y-57653858D02*
X180884528Y-58360965D01*
X180985543Y-57586515D02*
X181221246Y-57350813D01*
X180951872Y-56879408D02*
X180615154Y-57216126D01*
X180615154Y-57216126D02*
X181322261Y-57923232D01*
X181322261Y-57923232D02*
X181658978Y-57586515D01*
D12*
X164681082Y-77549630D02*
X164681082Y-78260830D01*
X165155216Y-78260830D02*
X165290682Y-78260830D01*
X165290682Y-78260830D02*
X165358416Y-78226963D01*
X165358416Y-78226963D02*
X165426149Y-78159230D01*
X165426149Y-78159230D02*
X165460016Y-78023763D01*
X165460016Y-78023763D02*
X165460016Y-77786697D01*
X165460016Y-77786697D02*
X165426149Y-77651230D01*
X165426149Y-77651230D02*
X165358416Y-77583497D01*
X165358416Y-77583497D02*
X165290682Y-77549630D01*
X165290682Y-77549630D02*
X165155216Y-77549630D01*
X165155216Y-77549630D02*
X165087482Y-77583497D01*
X165087482Y-77583497D02*
X165019749Y-77651230D01*
X165019749Y-77651230D02*
X164985882Y-77786697D01*
X164985882Y-77786697D02*
X164985882Y-78023763D01*
X164985882Y-78023763D02*
X165019749Y-78159230D01*
X165019749Y-78159230D02*
X165087482Y-78226963D01*
X165087482Y-78226963D02*
X165155216Y-78260830D01*
X166137349Y-77549630D02*
X165730949Y-77549630D01*
X165934149Y-77549630D02*
X165934149Y-78260830D01*
X165934149Y-78260830D02*
X165866416Y-78159230D01*
X165866416Y-78159230D02*
X165798683Y-78091497D01*
X165798683Y-78091497D02*
X165730949Y-78057630D01*
X159126949Y-77583497D02*
X159228549Y-77549630D01*
X159228549Y-77549630D02*
X159397883Y-77549630D01*
X159397883Y-77549630D02*
X159465616Y-77583497D01*
X159465616Y-77583497D02*
X159499483Y-77617363D01*
X159499483Y-77617363D02*
X159533349Y-77685097D01*
X159533349Y-77685097D02*
X159533349Y-77752830D01*
X159533349Y-77752830D02*
X159499483Y-77820563D01*
X159499483Y-77820563D02*
X159465616Y-77854430D01*
X159465616Y-77854430D02*
X159397883Y-77888297D01*
X159397883Y-77888297D02*
X159262416Y-77922163D01*
X159262416Y-77922163D02*
X159194683Y-77956030D01*
X159194683Y-77956030D02*
X159160816Y-77989897D01*
X159160816Y-77989897D02*
X159126949Y-78057630D01*
X159126949Y-78057630D02*
X159126949Y-78125363D01*
X159126949Y-78125363D02*
X159160816Y-78193097D01*
X159160816Y-78193097D02*
X159194683Y-78226963D01*
X159194683Y-78226963D02*
X159262416Y-78260830D01*
X159262416Y-78260830D02*
X159431749Y-78260830D01*
X159431749Y-78260830D02*
X159533349Y-78226963D01*
X160244549Y-77617363D02*
X160210682Y-77583497D01*
X160210682Y-77583497D02*
X160109082Y-77549630D01*
X160109082Y-77549630D02*
X160041349Y-77549630D01*
X160041349Y-77549630D02*
X159939749Y-77583497D01*
X159939749Y-77583497D02*
X159872016Y-77651230D01*
X159872016Y-77651230D02*
X159838149Y-77718963D01*
X159838149Y-77718963D02*
X159804282Y-77854430D01*
X159804282Y-77854430D02*
X159804282Y-77956030D01*
X159804282Y-77956030D02*
X159838149Y-78091497D01*
X159838149Y-78091497D02*
X159872016Y-78159230D01*
X159872016Y-78159230D02*
X159939749Y-78226963D01*
X159939749Y-78226963D02*
X160041349Y-78260830D01*
X160041349Y-78260830D02*
X160109082Y-78260830D01*
X160109082Y-78260830D02*
X160210682Y-78226963D01*
X160210682Y-78226963D02*
X160244549Y-78193097D01*
X160888016Y-77549630D02*
X160549349Y-77549630D01*
X160549349Y-77549630D02*
X160549349Y-78260830D01*
X161497615Y-77549630D02*
X161091215Y-77549630D01*
X161294415Y-77549630D02*
X161294415Y-78260830D01*
X161294415Y-78260830D02*
X161226682Y-78159230D01*
X161226682Y-78159230D02*
X161158949Y-78091497D01*
X161158949Y-78091497D02*
X161091215Y-78057630D01*
X154453348Y-78260830D02*
X154690415Y-77549630D01*
X154690415Y-77549630D02*
X154927481Y-78260830D01*
X155164548Y-77549630D02*
X155164548Y-78260830D01*
X155503215Y-77549630D02*
X155503215Y-78260830D01*
X155503215Y-78260830D02*
X155909615Y-77549630D01*
X155909615Y-77549630D02*
X155909615Y-78260830D01*
X157230415Y-74309850D02*
X157162682Y-74343717D01*
X157162682Y-74343717D02*
X157061082Y-74343717D01*
X157061082Y-74343717D02*
X156959482Y-74309850D01*
X156959482Y-74309850D02*
X156891749Y-74242117D01*
X156891749Y-74242117D02*
X156857882Y-74174384D01*
X156857882Y-74174384D02*
X156824015Y-74038917D01*
X156824015Y-74038917D02*
X156824015Y-73937317D01*
X156824015Y-73937317D02*
X156857882Y-73801850D01*
X156857882Y-73801850D02*
X156891749Y-73734117D01*
X156891749Y-73734117D02*
X156959482Y-73666384D01*
X156959482Y-73666384D02*
X157061082Y-73632517D01*
X157061082Y-73632517D02*
X157128815Y-73632517D01*
X157128815Y-73632517D02*
X157230415Y-73666384D01*
X157230415Y-73666384D02*
X157264282Y-73700250D01*
X157264282Y-73700250D02*
X157264282Y-73937317D01*
X157264282Y-73937317D02*
X157128815Y-73937317D01*
X157569082Y-73632517D02*
X157569082Y-74343717D01*
X157569082Y-74343717D02*
X157975482Y-73632517D01*
X157975482Y-73632517D02*
X157975482Y-74343717D01*
X158314149Y-73632517D02*
X158314149Y-74343717D01*
X158314149Y-74343717D02*
X158483482Y-74343717D01*
X158483482Y-74343717D02*
X158585082Y-74309850D01*
X158585082Y-74309850D02*
X158652816Y-74242117D01*
X158652816Y-74242117D02*
X158686682Y-74174384D01*
X158686682Y-74174384D02*
X158720549Y-74038917D01*
X158720549Y-74038917D02*
X158720549Y-73937317D01*
X158720549Y-73937317D02*
X158686682Y-73801850D01*
X158686682Y-73801850D02*
X158652816Y-73734117D01*
X158652816Y-73734117D02*
X158585082Y-73666384D01*
X158585082Y-73666384D02*
X158483482Y-73632517D01*
X158483482Y-73632517D02*
X158314149Y-73632517D01*
X161650015Y-73666384D02*
X161751615Y-73632517D01*
X161751615Y-73632517D02*
X161920949Y-73632517D01*
X161920949Y-73632517D02*
X161988682Y-73666384D01*
X161988682Y-73666384D02*
X162022549Y-73700250D01*
X162022549Y-73700250D02*
X162056415Y-73767984D01*
X162056415Y-73767984D02*
X162056415Y-73835717D01*
X162056415Y-73835717D02*
X162022549Y-73903450D01*
X162022549Y-73903450D02*
X161988682Y-73937317D01*
X161988682Y-73937317D02*
X161920949Y-73971184D01*
X161920949Y-73971184D02*
X161785482Y-74005050D01*
X161785482Y-74005050D02*
X161717749Y-74038917D01*
X161717749Y-74038917D02*
X161683882Y-74072784D01*
X161683882Y-74072784D02*
X161650015Y-74140517D01*
X161650015Y-74140517D02*
X161650015Y-74208250D01*
X161650015Y-74208250D02*
X161683882Y-74275984D01*
X161683882Y-74275984D02*
X161717749Y-74309850D01*
X161717749Y-74309850D02*
X161785482Y-74343717D01*
X161785482Y-74343717D02*
X161954815Y-74343717D01*
X161954815Y-74343717D02*
X162056415Y-74309850D01*
X162361215Y-73632517D02*
X162361215Y-74343717D01*
X162361215Y-74343717D02*
X162530548Y-74343717D01*
X162530548Y-74343717D02*
X162632148Y-74309850D01*
X162632148Y-74309850D02*
X162699882Y-74242117D01*
X162699882Y-74242117D02*
X162733748Y-74174384D01*
X162733748Y-74174384D02*
X162767615Y-74038917D01*
X162767615Y-74038917D02*
X162767615Y-73937317D01*
X162767615Y-73937317D02*
X162733748Y-73801850D01*
X162733748Y-73801850D02*
X162699882Y-73734117D01*
X162699882Y-73734117D02*
X162632148Y-73666384D01*
X162632148Y-73666384D02*
X162530548Y-73632517D01*
X162530548Y-73632517D02*
X162361215Y-73632517D01*
X163038548Y-73835717D02*
X163377215Y-73835717D01*
X162970815Y-73632517D02*
X163207882Y-74343717D01*
X163207882Y-74343717D02*
X163444948Y-73632517D01*
X164054548Y-73632517D02*
X163648148Y-73632517D01*
X163851348Y-73632517D02*
X163851348Y-74343717D01*
X163851348Y-74343717D02*
X163783615Y-74242117D01*
X163783615Y-74242117D02*
X163715882Y-74174384D01*
X163715882Y-74174384D02*
X163648148Y-74140517D01*
D13*
%TO.C,J11*%
X137332495Y-111305500D02*
X137332495Y-113965500D01*
X137332495Y-111305500D02*
X138475506Y-111305500D01*
X137332495Y-113965500D02*
X146010000Y-113986500D01*
X139874989Y-111305500D02*
X141018000Y-111305500D01*
X142452989Y-111305500D02*
X143596000Y-111305500D01*
X144990000Y-111326500D02*
X148550000Y-111326500D01*
X147530000Y-113986500D02*
X151090000Y-113986500D01*
X150070000Y-111326500D02*
X153630000Y-111326500D01*
X152610000Y-113986500D02*
X156170000Y-113986500D01*
X155150000Y-111326500D02*
X158260000Y-111326500D01*
X157690000Y-113986500D02*
X158260000Y-113986500D01*
X157690000Y-115506500D02*
X157690000Y-113986500D01*
X158260000Y-111326500D02*
X158260000Y-113986500D01*
%TO.C,J13*%
X128017499Y-77199000D02*
X128017499Y-74539000D01*
X128587499Y-73019000D02*
X128587499Y-74539000D01*
X128587499Y-74539000D02*
X128017499Y-74539000D01*
X131127498Y-77199000D02*
X128017499Y-77199000D01*
X133667500Y-74539000D02*
X130107499Y-74538999D01*
X136207499Y-77199000D02*
X132647499Y-77199000D01*
X138747499Y-74539000D02*
X135187499Y-74539000D01*
X138752499Y-77209000D02*
X137727499Y-77199000D01*
X138752499Y-77209000D02*
X138752499Y-74549000D01*
%TO.C,J12*%
D14*
X166861499Y-74654300D02*
X153869600Y-74654300D01*
X153869600Y-77276000D01*
X166861499Y-77276000D01*
X166861499Y-74654300D01*
D15*
%TO.C,G\u002A\u002A\u002A*%
G36*
X138647841Y-91517950D02*
G01*
X138647841Y-92917749D01*
X138367881Y-92917749D01*
X138087921Y-92917749D01*
X138087921Y-91517950D01*
X138087921Y-90118150D01*
X138367881Y-90118150D01*
X138647841Y-90118150D01*
X138647841Y-91517950D01*
G37*
G36*
X138647841Y-97168050D02*
G01*
X138647841Y-97448010D01*
X138367881Y-97448010D01*
X138087921Y-97448011D01*
X138087921Y-97168050D01*
X138087922Y-96888090D01*
X138367881Y-96888090D01*
X138647841Y-96888090D01*
X138647841Y-97168050D01*
G37*
G36*
X139767681Y-92663240D02*
G01*
X139767681Y-93477669D01*
X139513172Y-93477669D01*
X139258663Y-93477669D01*
X139258663Y-92663240D01*
X139258663Y-91848812D01*
X139513172Y-91848812D01*
X139767681Y-91848812D01*
X139767681Y-92663240D01*
G37*
G36*
X140887520Y-87598512D02*
G01*
X140887520Y-88438390D01*
X140073092Y-88438391D01*
X139258663Y-88438391D01*
X139258663Y-87598511D01*
X139258663Y-86758631D01*
X140073092Y-86758631D01*
X140887520Y-86758631D01*
X140887520Y-87598512D01*
G37*
G36*
X140887520Y-92663240D02*
G01*
X140887520Y-93477669D01*
X140633011Y-93477669D01*
X140378502Y-93477669D01*
X140378502Y-92663240D01*
X140378502Y-91848812D01*
X140633011Y-91848812D01*
X140887520Y-91848812D01*
X140887520Y-92663240D01*
G37*
G36*
X140887520Y-102232779D02*
G01*
X140887520Y-103047208D01*
X140073091Y-103047208D01*
X139258663Y-103047208D01*
X139258663Y-102232779D01*
X139258663Y-101418351D01*
X140073092Y-101418351D01*
X140887520Y-101418351D01*
X140887520Y-102232779D01*
G37*
G36*
X142007360Y-91288893D02*
G01*
X142007360Y-91543402D01*
X142007360Y-91797911D01*
X141752851Y-91797911D01*
X141498342Y-91797911D01*
X141498341Y-91543401D01*
X141498341Y-91288892D01*
X141752850Y-91288892D01*
X142007360Y-91288893D01*
G37*
G36*
X142567280Y-94902920D02*
G01*
X142567280Y-95157429D01*
X142032811Y-95157429D01*
X141498342Y-95157429D01*
X141498342Y-94902920D01*
X141498342Y-94648411D01*
X142032811Y-94648411D01*
X142567280Y-94648411D01*
X142567280Y-94902920D01*
G37*
G36*
X143178102Y-102538190D02*
G01*
X143178102Y-103378070D01*
X143178103Y-104217950D01*
X142898142Y-104217950D01*
X142618182Y-104217951D01*
X142618182Y-103378070D01*
X142618182Y-102538190D01*
X142898142Y-102538189D01*
X143178102Y-102538190D01*
G37*
G36*
X143178102Y-95208331D02*
G01*
X143178103Y-95488291D01*
X143178103Y-95768250D01*
X142898142Y-95768250D01*
X142618181Y-95768250D01*
X142618181Y-95488291D01*
X142618182Y-95208331D01*
X142898142Y-95208330D01*
X143178102Y-95208331D01*
G37*
G36*
X144297941Y-87038590D02*
G01*
X144297941Y-87318551D01*
X144017981Y-87318551D01*
X143738022Y-87318551D01*
X143738021Y-87038591D01*
X143738021Y-86758631D01*
X144017981Y-86758631D01*
X144297941Y-86758631D01*
X144297941Y-87038590D01*
G37*
G36*
X144297941Y-103937990D02*
G01*
X144297940Y-104217950D01*
X144017981Y-104217950D01*
X143738021Y-104217950D01*
X143738022Y-103937990D01*
X143738021Y-103658030D01*
X144017981Y-103658030D01*
X144297940Y-103658030D01*
X144297941Y-103937990D01*
G37*
G36*
X145417781Y-87598511D02*
G01*
X145417781Y-87878471D01*
X145137821Y-87878471D01*
X144857861Y-87878471D01*
X144857862Y-87598511D01*
X144857861Y-87318551D01*
X145137821Y-87318551D01*
X145417781Y-87318551D01*
X145417781Y-87598511D01*
G37*
G36*
X146537621Y-88160098D02*
G01*
X146537621Y-88438391D01*
X146257661Y-88438391D01*
X145977701Y-88438391D01*
X145977701Y-88158431D01*
X145977701Y-87878471D01*
X146257661Y-87878471D01*
X146537621Y-87878471D01*
X146537621Y-88160098D01*
G37*
G36*
X146537621Y-100553020D02*
G01*
X146537621Y-100807529D01*
X146257661Y-100807529D01*
X145977701Y-100807529D01*
X145977701Y-100553020D01*
X145977701Y-100298511D01*
X146257661Y-100298511D01*
X146537621Y-100298511D01*
X146537621Y-100553020D01*
G37*
G36*
X147097540Y-99993100D02*
G01*
X147097540Y-100247609D01*
X146817580Y-100247609D01*
X146537621Y-100247609D01*
X146537621Y-99993100D01*
X146537621Y-99738591D01*
X146817580Y-99738591D01*
X147097540Y-99738591D01*
X147097540Y-99993100D01*
G37*
G36*
X147657460Y-100553020D02*
G01*
X147657460Y-100807529D01*
X147402951Y-100807529D01*
X147148442Y-100807529D01*
X147148442Y-100553020D01*
X147148442Y-100298511D01*
X147402951Y-100298511D01*
X147657460Y-100298511D01*
X147657460Y-100553020D01*
G37*
G36*
X148217380Y-87038591D02*
G01*
X148217380Y-87318551D01*
X147682911Y-87318551D01*
X147148441Y-87318551D01*
X147148442Y-87038591D01*
X147148442Y-86758631D01*
X147682911Y-86758631D01*
X148217380Y-86758631D01*
X148217380Y-87038591D01*
G37*
G36*
X148217380Y-90398110D02*
G01*
X148217380Y-90678070D01*
X147962871Y-90678070D01*
X147708362Y-90678070D01*
X147708362Y-90398110D01*
X147708362Y-90118150D01*
X147962871Y-90118150D01*
X148217380Y-90118150D01*
X148217380Y-90398110D01*
G37*
G36*
X148217380Y-91543401D02*
G01*
X148217380Y-91797910D01*
X147682911Y-91797910D01*
X147148442Y-91797911D01*
X147148442Y-91543402D01*
X147148441Y-91288892D01*
X147682911Y-91288892D01*
X148217380Y-91288892D01*
X148217380Y-91543401D01*
G37*
G36*
X148420987Y-84086286D02*
G01*
X148420987Y-84722559D01*
X148293733Y-84722559D01*
X148166478Y-84722559D01*
X148166478Y-84086286D01*
X148166478Y-83450014D01*
X148293733Y-83450014D01*
X148420987Y-83450014D01*
X148420987Y-84086286D01*
G37*
G36*
X149337220Y-98287890D02*
G01*
X149337220Y-98567850D01*
X149082711Y-98567850D01*
X148828202Y-98567850D01*
X148828202Y-98287890D01*
X148828202Y-98007930D01*
X149082711Y-98007930D01*
X149337220Y-98007930D01*
X149337220Y-98287890D01*
G37*
G36*
X150457059Y-86453221D02*
G01*
X150457059Y-86707730D01*
X150202550Y-86707730D01*
X149948040Y-86707729D01*
X149948040Y-86453220D01*
X149948040Y-86198711D01*
X150202549Y-86198711D01*
X150457058Y-86198711D01*
X150457059Y-86453221D01*
G37*
G36*
X151016979Y-92663240D02*
G01*
X151016979Y-92917749D01*
X150762470Y-92917749D01*
X150507961Y-92917749D01*
X150507961Y-92663240D01*
X150507961Y-92408731D01*
X150762470Y-92408731D01*
X151016979Y-92408731D01*
X151016979Y-92663240D01*
G37*
G36*
X151016979Y-93783080D02*
G01*
X151016979Y-94037589D01*
X150762470Y-94037589D01*
X150507961Y-94037589D01*
X150507961Y-93783080D01*
X150507961Y-93528571D01*
X150762470Y-93528571D01*
X151016979Y-93528571D01*
X151016979Y-93783080D01*
G37*
G36*
X151627801Y-87038591D02*
G01*
X151627802Y-87318551D01*
X151067880Y-87318551D01*
X150507961Y-87318551D01*
X150507961Y-87038590D01*
X150507961Y-86758631D01*
X151067881Y-86758631D01*
X151627801Y-86758631D01*
X151627801Y-87038591D01*
G37*
G36*
X151627801Y-92103321D02*
G01*
X151627801Y-92357830D01*
X151347841Y-92357830D01*
X151067881Y-92357830D01*
X151067881Y-92103321D01*
X151067881Y-91848812D01*
X151347841Y-91848812D01*
X151627801Y-91848812D01*
X151627801Y-92103321D01*
G37*
G36*
X153307560Y-89278270D02*
G01*
X153307560Y-89558230D01*
X153027601Y-89558230D01*
X152747641Y-89558230D01*
X152747641Y-89278271D01*
X152747641Y-88998311D01*
X153027601Y-88998311D01*
X153307560Y-88998311D01*
X153307560Y-89278270D01*
G37*
G36*
X153867480Y-86453220D02*
G01*
X153867480Y-86707729D01*
X153587520Y-86707729D01*
X153307560Y-86707729D01*
X153307560Y-86453220D01*
X153307560Y-86198711D01*
X153587520Y-86198711D01*
X153867480Y-86198711D01*
X153867480Y-86453220D01*
G37*
G36*
X153867480Y-96048210D02*
G01*
X153867480Y-96328170D01*
X153587520Y-96328170D01*
X153307560Y-96328170D01*
X153307561Y-96048210D01*
X153307560Y-95768250D01*
X153587520Y-95768250D01*
X153867480Y-95768250D01*
X153867480Y-96048210D01*
G37*
G36*
X153867480Y-98287890D02*
G01*
X153867480Y-98567850D01*
X153587520Y-98567850D01*
X153307560Y-98567850D01*
X153307560Y-98286916D01*
X153307560Y-98007930D01*
X153587520Y-98007930D01*
X153867480Y-98007930D01*
X153867480Y-98287890D01*
G37*
G36*
X154427400Y-94902920D02*
G01*
X154427400Y-95157429D01*
X154147440Y-95157429D01*
X153867480Y-95157429D01*
X153867480Y-94902920D01*
X153867480Y-94648411D01*
X154147440Y-94648411D01*
X154427400Y-94648411D01*
X154427400Y-94902920D01*
G37*
G36*
X154987320Y-96608130D02*
G01*
X154987320Y-96888090D01*
X154707361Y-96888090D01*
X154427400Y-96888090D01*
X154427400Y-96608130D01*
X154427400Y-96328170D01*
X154707360Y-96328170D01*
X154987320Y-96328170D01*
X154987320Y-96608130D01*
G37*
G36*
X155547240Y-102232779D02*
G01*
X155547239Y-103047208D01*
X154707361Y-103047208D01*
X153867480Y-103047208D01*
X153867480Y-102232779D01*
X153867480Y-101418351D01*
X154707360Y-101418351D01*
X155547240Y-101418351D01*
X155547240Y-102232779D01*
G37*
G36*
X156107160Y-85893301D02*
G01*
X156107160Y-86147810D01*
X155852651Y-86147810D01*
X155598143Y-86147810D01*
X155598143Y-85893301D01*
X155598143Y-85638792D01*
X155852651Y-85638792D01*
X156107160Y-85638792D01*
X156107160Y-85893301D01*
G37*
G36*
X156667079Y-94343000D02*
G01*
X156667079Y-94597509D01*
X156412570Y-94597509D01*
X156158061Y-94597509D01*
X156158061Y-94343000D01*
X156158061Y-94088491D01*
X156412570Y-94088491D01*
X156667079Y-94088491D01*
X156667079Y-94343000D01*
G37*
G36*
X156667079Y-96608130D02*
G01*
X156667079Y-96888090D01*
X156412570Y-96888090D01*
X156158061Y-96888090D01*
X156158061Y-96608130D01*
X156158061Y-96328170D01*
X156412570Y-96328170D01*
X156667079Y-96328170D01*
X156667079Y-96608130D01*
G37*
G36*
X138647841Y-94928371D02*
G01*
X138647841Y-95208331D01*
X139207761Y-95208331D01*
X139767681Y-95208331D01*
X139767681Y-95488291D01*
X139767681Y-95768250D01*
X138927801Y-95768250D01*
X138087921Y-95768250D01*
X138087922Y-95208331D01*
X138087921Y-94648411D01*
X138367881Y-94648411D01*
X138647841Y-94648411D01*
X138647841Y-94928371D01*
G37*
G36*
X142567280Y-92383280D02*
G01*
X142567280Y-92917749D01*
X142032811Y-92917749D01*
X141498342Y-92917749D01*
X141498342Y-92665901D01*
X141498342Y-92414052D01*
X141765576Y-92398666D01*
X142032811Y-92383280D01*
X142048197Y-92116046D01*
X142063582Y-91848812D01*
X142315431Y-91848812D01*
X142567280Y-91848812D01*
X142567280Y-92383280D01*
G37*
G36*
X144297940Y-95488291D02*
G01*
X144297941Y-96328170D01*
X144019648Y-96328170D01*
X143741356Y-96328170D01*
X143726963Y-95755525D01*
X143712570Y-95182880D01*
X143445336Y-95167494D01*
X143178102Y-95152109D01*
X143178102Y-94900260D01*
X143178102Y-94648411D01*
X143738021Y-94648411D01*
X144297941Y-94648411D01*
X144297940Y-95488291D01*
G37*
G36*
X154987320Y-85918751D02*
G01*
X154987320Y-86198711D01*
X155267279Y-86198711D01*
X155547240Y-86198711D01*
X155547240Y-86758631D01*
X155547240Y-87318550D01*
X154987320Y-87318551D01*
X154427400Y-87318551D01*
X154427400Y-86478671D01*
X154427400Y-85638792D01*
X154707361Y-85638792D01*
X154987320Y-85638792D01*
X154987320Y-85918751D01*
G37*
G36*
X144005256Y-91280687D02*
G01*
X144297941Y-91297934D01*
X144297941Y-91547922D01*
X144297941Y-91797910D01*
X144017981Y-91797910D01*
X143738022Y-91797910D01*
X143738021Y-92077870D01*
X143738021Y-92357830D01*
X143458061Y-92357830D01*
X143178102Y-92357830D01*
X143178103Y-91826021D01*
X143178102Y-91294212D01*
X143445336Y-91278826D01*
X143543218Y-91274895D01*
X143780205Y-91273488D01*
X144005256Y-91280687D01*
G37*
G36*
X147762438Y-94110806D02*
G01*
X147919056Y-94185797D01*
X147955482Y-94218107D01*
X148008449Y-94295410D01*
X148033141Y-94408902D01*
X148039224Y-94591194D01*
X148038899Y-94632726D01*
X148018688Y-94842490D01*
X147957043Y-94973782D01*
X147839955Y-95044009D01*
X147653416Y-95070577D01*
X147428402Y-95081076D01*
X147413833Y-94584783D01*
X147399266Y-94088491D01*
X147599076Y-94088491D01*
X147762438Y-94110806D01*
G37*
G36*
X139207761Y-93808531D02*
G01*
X139207762Y-94088491D01*
X140047640Y-94088491D01*
X140887521Y-94088491D01*
X140887520Y-94622960D01*
X140887520Y-95157429D01*
X140635671Y-95157429D01*
X140383823Y-95157429D01*
X140368437Y-94890194D01*
X140353051Y-94622961D01*
X139525897Y-94608973D01*
X138698743Y-94594987D01*
X138698743Y-94061779D01*
X138698743Y-93528571D01*
X138953252Y-93528571D01*
X139207761Y-93528571D01*
X139207761Y-93808531D01*
G37*
G36*
X142007360Y-90395451D02*
G01*
X142007360Y-90672750D01*
X141740126Y-90688135D01*
X141472891Y-90703521D01*
X141457506Y-90970755D01*
X141442120Y-91237989D01*
X141190271Y-91237990D01*
X140938422Y-91237990D01*
X140938422Y-90958030D01*
X140938422Y-90678070D01*
X141218382Y-90678070D01*
X141498342Y-90678070D01*
X141498341Y-90398110D01*
X141498342Y-90118150D01*
X141752851Y-90118150D01*
X142007360Y-90118150D01*
X142007360Y-90395451D01*
G37*
G36*
X147657460Y-98847810D02*
G01*
X147657460Y-99127770D01*
X147937420Y-99127769D01*
X148217380Y-99127769D01*
X148217380Y-99407729D01*
X148217380Y-99687689D01*
X147965531Y-99687689D01*
X147713682Y-99687689D01*
X147698297Y-99420455D01*
X147682911Y-99153220D01*
X147415677Y-99137835D01*
X147148442Y-99122449D01*
X147148442Y-98845149D01*
X147148442Y-98567850D01*
X147402951Y-98567850D01*
X147657460Y-98567850D01*
X147657460Y-98847810D01*
G37*
G36*
X142007360Y-87598511D02*
G01*
X142007360Y-89558230D01*
X140047641Y-89558230D01*
X138087921Y-89558230D01*
X138087921Y-88998311D01*
X138087921Y-87598511D01*
X138087922Y-86198712D01*
X138698743Y-86198712D01*
X138698743Y-87598512D01*
X138698743Y-88998311D01*
X140073092Y-88998311D01*
X141447440Y-88998311D01*
X141447440Y-87598511D01*
X141447440Y-86198711D01*
X140073092Y-86198711D01*
X138698743Y-86198712D01*
X138087922Y-86198712D01*
X138087922Y-85638792D01*
X140047641Y-85638792D01*
X142007361Y-85638792D01*
X142007360Y-87598511D01*
G37*
G36*
X142007360Y-102258230D02*
G01*
X142007360Y-104217950D01*
X140047641Y-104217951D01*
X138087921Y-104217950D01*
X138087921Y-103607128D01*
X138087921Y-102258230D01*
X138087921Y-100858431D01*
X138698743Y-100858431D01*
X138698743Y-102232779D01*
X138698743Y-103607128D01*
X140073092Y-103607128D01*
X141447440Y-103607128D01*
X141447440Y-102232779D01*
X141447440Y-100858431D01*
X140073092Y-100858430D01*
X138698743Y-100858431D01*
X138087921Y-100858431D01*
X138087921Y-100298511D01*
X140047641Y-100298511D01*
X142007360Y-100298511D01*
X142007360Y-102258230D01*
G37*
G36*
X146537621Y-86173260D02*
G01*
X146537621Y-86707729D01*
X146270386Y-86710257D01*
X146152866Y-86711088D01*
X145908375Y-86712007D01*
X145613575Y-86712491D01*
X145298887Y-86712541D01*
X144994734Y-86712162D01*
X144731539Y-86711356D01*
X144539725Y-86710122D01*
X144297940Y-86707729D01*
X144297940Y-86453220D01*
X144297940Y-86198711D01*
X144857862Y-86198711D01*
X145417781Y-86198711D01*
X145417781Y-85918751D01*
X145417781Y-85638792D01*
X145977702Y-85638792D01*
X146537621Y-85638792D01*
X146537621Y-86173260D01*
G37*
G36*
X151020502Y-95475565D02*
G01*
X151021829Y-95559980D01*
X151026926Y-95798085D01*
X151033228Y-96022758D01*
X151042430Y-96302719D01*
X151335116Y-96317985D01*
X151627801Y-96333251D01*
X151627801Y-96610670D01*
X151627801Y-96888089D01*
X151347841Y-96888090D01*
X151067880Y-96888090D01*
X151067881Y-96608130D01*
X151067881Y-96328170D01*
X150787921Y-96328170D01*
X150507961Y-96328170D01*
X150507962Y-95768250D01*
X150507961Y-95208331D01*
X150762470Y-95208331D01*
X151016979Y-95208331D01*
X151020502Y-95475565D01*
G37*
G36*
X156667079Y-102258230D02*
G01*
X156667079Y-104217950D01*
X154707360Y-104217950D01*
X152747641Y-104217951D01*
X152747641Y-103607128D01*
X152747641Y-102258230D01*
X152747641Y-102232779D01*
X153307560Y-102232779D01*
X153307560Y-103607128D01*
X154707360Y-103607128D01*
X156107160Y-103607128D01*
X156107160Y-102232779D01*
X156107160Y-100858431D01*
X154707361Y-100858431D01*
X153307561Y-100858431D01*
X153307560Y-102232779D01*
X152747641Y-102232779D01*
X152747641Y-100298511D01*
X154707360Y-100298511D01*
X156667079Y-100298511D01*
X156667079Y-102258230D01*
G37*
G36*
X155547240Y-95490831D02*
G01*
X155547240Y-95773331D01*
X155839925Y-95758066D01*
X156132611Y-95742800D01*
X156147996Y-95475565D01*
X156163382Y-95208331D01*
X156415231Y-95208331D01*
X156667079Y-95208331D01*
X156667079Y-95488291D01*
X156667079Y-95768250D01*
X156387120Y-95768250D01*
X156107160Y-95768250D01*
X156107160Y-96048210D01*
X156107160Y-96328170D01*
X155547240Y-96328170D01*
X154987320Y-96328170D01*
X154987320Y-96048210D01*
X154987320Y-95768250D01*
X154707360Y-95768250D01*
X154427400Y-95768249D01*
X154427400Y-95488292D01*
X154427400Y-95208331D01*
X154987320Y-95208331D01*
X155547240Y-95208330D01*
X155547240Y-95490831D01*
G37*
G36*
X144297940Y-92943200D02*
G01*
X144297941Y-93477669D01*
X144017981Y-93477669D01*
X143738022Y-93477669D01*
X143738021Y-93755089D01*
X143738021Y-94032509D01*
X143445336Y-94047774D01*
X143418363Y-94048950D01*
X143256046Y-94052405D01*
X143017379Y-94054089D01*
X142722586Y-94053993D01*
X142391896Y-94052108D01*
X142045536Y-94048421D01*
X140938422Y-94033803D01*
X140938422Y-93781187D01*
X140938422Y-93528571D01*
X142058262Y-93528571D01*
X143178102Y-93528571D01*
X143178103Y-93251271D01*
X143178102Y-92973971D01*
X143445336Y-92958586D01*
X143712570Y-92943199D01*
X143727956Y-92675966D01*
X143743342Y-92408731D01*
X144020641Y-92408731D01*
X144297941Y-92408731D01*
X144297940Y-92943200D01*
G37*
G36*
X148777300Y-98847810D02*
G01*
X148777300Y-99127769D01*
X149337220Y-99127769D01*
X149897140Y-99127770D01*
X149897140Y-99405069D01*
X149897140Y-99682369D01*
X149629905Y-99697755D01*
X149362671Y-99713140D01*
X149347285Y-99980375D01*
X149331900Y-100247609D01*
X149054600Y-100247609D01*
X148777300Y-100247610D01*
X148777300Y-100527569D01*
X148777300Y-100807529D01*
X148522791Y-100807529D01*
X148268282Y-100807529D01*
X148268282Y-100275720D01*
X148268282Y-99743911D01*
X148535515Y-99728526D01*
X148802751Y-99713139D01*
X148802751Y-99433180D01*
X148802751Y-99153220D01*
X148535516Y-99137835D01*
X148268282Y-99122449D01*
X148268282Y-98845150D01*
X148268282Y-98567851D01*
X148522791Y-98567851D01*
X148777300Y-98567851D01*
X148777300Y-98847810D01*
G37*
G36*
X151627801Y-101698311D02*
G01*
X151627801Y-101978270D01*
X151907761Y-101978270D01*
X152187721Y-101978270D01*
X152187721Y-103098110D01*
X152187721Y-104217950D01*
X151627801Y-104217950D01*
X151067881Y-104217950D01*
X151067880Y-103937990D01*
X151067881Y-103658030D01*
X151350381Y-103658029D01*
X151632881Y-103658030D01*
X151617616Y-103365345D01*
X151602350Y-103072660D01*
X151337687Y-103057363D01*
X151073023Y-103042066D01*
X151057726Y-102777403D01*
X151042430Y-102512739D01*
X150775196Y-102497354D01*
X150507961Y-102481968D01*
X150507961Y-102230119D01*
X150507961Y-101978270D01*
X150787921Y-101978270D01*
X151067881Y-101978270D01*
X151067881Y-101698311D01*
X151067881Y-101418351D01*
X151347841Y-101418351D01*
X151627801Y-101418351D01*
X151627801Y-101698311D01*
G37*
G36*
X150126366Y-83452425D02*
G01*
X150177369Y-83478120D01*
X150198426Y-83553474D01*
X150202550Y-83704523D01*
X150202550Y-83959032D01*
X150431609Y-83959032D01*
X150448064Y-83959070D01*
X150583447Y-83967133D01*
X150645679Y-83997216D01*
X150660667Y-84060836D01*
X150660579Y-84068149D01*
X150642440Y-84128319D01*
X150574752Y-84155978D01*
X150431609Y-84162639D01*
X150329677Y-84163738D01*
X150240580Y-84179492D01*
X150207440Y-84231329D01*
X150202550Y-84340796D01*
X150202549Y-84518952D01*
X150457059Y-84518953D01*
X150515927Y-84519387D01*
X150641294Y-84529239D01*
X150698169Y-84559693D01*
X150711568Y-84620755D01*
X150710970Y-84639081D01*
X150694481Y-84684041D01*
X150639522Y-84709191D01*
X150524996Y-84720155D01*
X150329805Y-84722559D01*
X149948040Y-84722559D01*
X149948040Y-84086286D01*
X149948041Y-83450014D01*
X150075296Y-83450014D01*
X150126366Y-83452425D01*
G37*
G36*
X148849908Y-83451662D02*
G01*
X148895402Y-83470056D01*
X148919272Y-83526458D01*
X148928483Y-83642132D01*
X148930005Y-83838342D01*
X148930005Y-84226670D01*
X149239983Y-83838342D01*
X149279119Y-83789972D01*
X149439234Y-83607831D01*
X149565453Y-83491150D01*
X149647198Y-83450014D01*
X149676432Y-83452815D01*
X149707626Y-83474742D01*
X149727504Y-83532581D01*
X149738588Y-83642805D01*
X149743392Y-83821883D01*
X149744434Y-84086285D01*
X149744434Y-84722558D01*
X149617180Y-84722559D01*
X149570023Y-84720911D01*
X149524527Y-84702517D01*
X149500658Y-84646115D01*
X149491447Y-84530441D01*
X149489925Y-84334231D01*
X149489925Y-83945903D01*
X149179946Y-84334231D01*
X149140812Y-84382601D01*
X148980696Y-84564741D01*
X148854476Y-84681423D01*
X148772733Y-84722559D01*
X148743499Y-84719758D01*
X148712306Y-84697831D01*
X148692426Y-84639992D01*
X148681343Y-84529768D01*
X148676538Y-84350690D01*
X148675496Y-84086286D01*
X148675496Y-83450014D01*
X148802751Y-83450014D01*
X148849908Y-83451662D01*
G37*
G36*
X145186977Y-83522357D02*
G01*
X145330458Y-83613333D01*
X145453635Y-83779721D01*
X145513111Y-83981644D01*
X145509947Y-84195494D01*
X145445204Y-84397661D01*
X145319947Y-84564537D01*
X145135234Y-84672511D01*
X145130347Y-84674101D01*
X144887236Y-84701749D01*
X144650154Y-84637949D01*
X144447598Y-84490256D01*
X144376732Y-84397242D01*
X144334587Y-84271655D01*
X144323392Y-84087531D01*
X144324757Y-84034346D01*
X144565406Y-84034346D01*
X144584949Y-84225053D01*
X144686675Y-84391396D01*
X144761366Y-84440586D01*
X144915116Y-84469305D01*
X145071686Y-84439647D01*
X145185836Y-84354920D01*
X145233851Y-84257417D01*
X145263389Y-84082668D01*
X145242422Y-83912246D01*
X145171990Y-83788765D01*
X145127070Y-83756773D01*
X144974602Y-83710554D01*
X144810652Y-83719631D01*
X144683417Y-83784435D01*
X144628227Y-83853490D01*
X144565406Y-84034346D01*
X144324757Y-84034346D01*
X144325137Y-84019547D01*
X144369344Y-83800059D01*
X144483096Y-83641059D01*
X144679705Y-83521404D01*
X144842290Y-83465178D01*
X145000518Y-83462548D01*
X145186977Y-83522357D01*
G37*
G36*
X151753310Y-83522357D02*
G01*
X151896790Y-83613333D01*
X152019968Y-83779721D01*
X152079444Y-83981644D01*
X152076279Y-84195494D01*
X152011537Y-84397661D01*
X151886277Y-84564537D01*
X151701566Y-84672511D01*
X151696679Y-84674101D01*
X151453568Y-84701749D01*
X151216486Y-84637949D01*
X151013931Y-84490255D01*
X150943066Y-84397242D01*
X150900919Y-84271655D01*
X150889725Y-84087530D01*
X150891090Y-84034346D01*
X151131738Y-84034346D01*
X151151282Y-84225053D01*
X151253008Y-84391396D01*
X151327698Y-84440586D01*
X151481449Y-84469304D01*
X151638019Y-84439647D01*
X151752169Y-84354919D01*
X151800183Y-84257416D01*
X151829722Y-84082668D01*
X151808754Y-83912246D01*
X151738322Y-83788765D01*
X151693403Y-83756773D01*
X151540935Y-83710553D01*
X151376984Y-83719631D01*
X151249750Y-83784435D01*
X151194560Y-83853490D01*
X151131738Y-84034346D01*
X150891090Y-84034346D01*
X150891470Y-84019547D01*
X150935676Y-83800059D01*
X151049430Y-83641059D01*
X151246037Y-83521404D01*
X151408622Y-83465178D01*
X151566851Y-83462549D01*
X151753310Y-83522357D01*
G37*
G36*
X147293515Y-83450174D02*
G01*
X147462117Y-83454571D01*
X147556427Y-83469226D01*
X147597542Y-83499767D01*
X147606558Y-83551818D01*
X147605469Y-83575365D01*
X147580840Y-83625511D01*
X147504704Y-83648261D01*
X147352049Y-83653621D01*
X147097540Y-83653621D01*
X147097540Y-83831777D01*
X147097996Y-83884347D01*
X147112851Y-83971239D01*
X147170785Y-84004540D01*
X147301147Y-84009934D01*
X147418669Y-84015698D01*
X147487681Y-84045134D01*
X147504755Y-84111737D01*
X147493227Y-84170498D01*
X147434355Y-84205004D01*
X147301148Y-84213541D01*
X147257427Y-84213782D01*
X147149151Y-84224803D01*
X147105581Y-84268331D01*
X147097540Y-84366246D01*
X147100398Y-84441656D01*
X147126257Y-84495102D01*
X147201386Y-84515616D01*
X147352049Y-84518952D01*
X147410917Y-84519387D01*
X147536283Y-84529239D01*
X147593159Y-84559693D01*
X147606558Y-84620756D01*
X147605960Y-84639081D01*
X147589471Y-84684041D01*
X147534512Y-84709191D01*
X147419987Y-84720155D01*
X147224795Y-84722559D01*
X146843031Y-84722559D01*
X146843031Y-84086286D01*
X146843031Y-83450014D01*
X147224795Y-83450014D01*
X147293515Y-83450174D01*
G37*
G36*
X153307560Y-98847810D02*
G01*
X153307560Y-99127770D01*
X153587520Y-99127769D01*
X153867480Y-99127769D01*
X153867480Y-99407729D01*
X153867480Y-99687689D01*
X153027601Y-99687689D01*
X152187721Y-99687689D01*
X152187721Y-100247609D01*
X152187721Y-100807529D01*
X151907761Y-100807529D01*
X151627801Y-100807529D01*
X151627801Y-100245069D01*
X151627801Y-99682609D01*
X151335116Y-99697875D01*
X151042430Y-99713140D01*
X151028444Y-100540295D01*
X151014457Y-101367449D01*
X150761209Y-101367450D01*
X150507961Y-101367449D01*
X150507961Y-100807529D01*
X150507962Y-100247609D01*
X150228001Y-100247609D01*
X149948040Y-100247609D01*
X149948040Y-99995760D01*
X149948041Y-99743911D01*
X150215276Y-99728526D01*
X150482510Y-99713139D01*
X150497776Y-99420455D01*
X150513042Y-99127769D01*
X150790461Y-99127769D01*
X151067880Y-99127769D01*
X151067881Y-98847810D01*
X151067881Y-98567850D01*
X151347841Y-98567851D01*
X151627801Y-98567850D01*
X151627801Y-98847810D01*
X151627801Y-99127770D01*
X151907761Y-99127769D01*
X152187721Y-99127769D01*
X152187721Y-98847810D01*
X152187721Y-98567850D01*
X152747641Y-98567851D01*
X153307560Y-98567850D01*
X153307560Y-98847810D01*
G37*
G36*
X142955288Y-83453131D02*
G01*
X142995405Y-83476224D01*
X143016664Y-83539756D01*
X143025389Y-83664181D01*
X143027900Y-83869954D01*
X143030403Y-84289894D01*
X143206758Y-83946306D01*
X143222486Y-83916223D01*
X143316309Y-83757155D01*
X143400355Y-83645103D01*
X143458061Y-83602719D01*
X143465299Y-83604034D01*
X143528650Y-83659858D01*
X143615528Y-83781500D01*
X143709365Y-83946307D01*
X143885721Y-84289894D01*
X143888223Y-83869954D01*
X143890292Y-83681432D01*
X143898076Y-83549503D01*
X143917739Y-83480595D01*
X143955600Y-83454250D01*
X144017981Y-83450014D01*
X144145236Y-83450014D01*
X144145237Y-84086286D01*
X144145237Y-84722559D01*
X143999827Y-84722559D01*
X143949929Y-84719665D01*
X143887095Y-84695565D01*
X143829110Y-84631663D01*
X143761407Y-84509861D01*
X143669419Y-84312060D01*
X143628817Y-84224850D01*
X143545913Y-84064613D01*
X143479341Y-83959392D01*
X143440680Y-83928594D01*
X143432612Y-83936514D01*
X143384016Y-84016008D01*
X143312260Y-84158244D01*
X143229746Y-84339093D01*
X143185782Y-84438662D01*
X143111824Y-84591206D01*
X143052609Y-84676775D01*
X142992715Y-84714262D01*
X142916719Y-84722559D01*
X142770887Y-84722559D01*
X142770887Y-84086286D01*
X142770887Y-83450014D01*
X142898142Y-83450014D01*
X142955288Y-83453131D01*
G37*
G36*
X145884769Y-83450889D02*
G01*
X145946501Y-83470756D01*
X145972426Y-83537725D01*
X145977701Y-83679072D01*
X145983808Y-83813427D01*
X146010677Y-83888467D01*
X146067842Y-83908130D01*
X146096071Y-83901364D01*
X146185738Y-83824961D01*
X146283112Y-83679072D01*
X146285503Y-83674703D01*
X146373360Y-83534846D01*
X146453091Y-83467464D01*
X146551074Y-83450014D01*
X146630869Y-83453525D01*
X146666851Y-83482905D01*
X146633998Y-83564543D01*
X146563477Y-83685454D01*
X146473704Y-83822326D01*
X146455466Y-83848429D01*
X146403452Y-83936953D01*
X146411501Y-83998603D01*
X146480921Y-84080116D01*
X146551305Y-84191392D01*
X146588522Y-84348912D01*
X146567568Y-84480751D01*
X146477407Y-84601075D01*
X146308142Y-84676724D01*
X146051172Y-84713534D01*
X145723192Y-84734419D01*
X145723192Y-84315345D01*
X145977701Y-84315345D01*
X145978219Y-84387083D01*
X145991008Y-84481902D01*
X146038404Y-84513803D01*
X146143132Y-84509451D01*
X146251646Y-84489835D01*
X146299165Y-84436278D01*
X146308562Y-84315345D01*
X146300063Y-84197665D01*
X146254586Y-84142104D01*
X146143132Y-84121238D01*
X146086595Y-84116445D01*
X146010949Y-84125390D01*
X145982225Y-84182802D01*
X145977701Y-84315345D01*
X145723192Y-84315345D01*
X145723192Y-84092216D01*
X145723192Y-83450014D01*
X145850446Y-83450014D01*
X145884769Y-83450889D01*
G37*
G36*
X156667079Y-92660580D02*
G01*
X156667079Y-93472349D01*
X156399845Y-93487735D01*
X156132611Y-93503120D01*
X156117225Y-93770355D01*
X156101839Y-94037589D01*
X155544580Y-94037589D01*
X154987320Y-94037589D01*
X154987320Y-93754969D01*
X154987320Y-93472349D01*
X154720086Y-93487735D01*
X154452851Y-93503120D01*
X154437465Y-93770355D01*
X154422080Y-94037589D01*
X154144780Y-94037589D01*
X153867480Y-94037589D01*
X153867480Y-93783080D01*
X153867480Y-93528571D01*
X154147440Y-93528571D01*
X154427400Y-93528571D01*
X154427400Y-93223160D01*
X154427400Y-92917749D01*
X154147440Y-92917749D01*
X153867480Y-92917749D01*
X153867480Y-93197709D01*
X153867480Y-93477669D01*
X153587520Y-93477669D01*
X153307560Y-93477670D01*
X153307560Y-92943200D01*
X153307560Y-92408731D01*
X153587520Y-92405737D01*
X153698542Y-92404738D01*
X153942586Y-92403306D01*
X154172891Y-92402744D01*
X154295119Y-92402931D01*
X154529150Y-92404014D01*
X154730151Y-92405737D01*
X154982000Y-92408731D01*
X154997385Y-92675966D01*
X155012771Y-92943200D01*
X155292731Y-92943200D01*
X155572691Y-92943199D01*
X155587987Y-92678536D01*
X155603284Y-92413873D01*
X155867947Y-92398577D01*
X156132611Y-92383280D01*
X156147996Y-92116046D01*
X156163382Y-91848812D01*
X156415231Y-91848812D01*
X156667079Y-91848812D01*
X156667079Y-92660580D01*
G37*
G36*
X140891043Y-96595405D02*
G01*
X140892370Y-96679820D01*
X140897467Y-96917925D01*
X140903769Y-97142599D01*
X140912971Y-97422559D01*
X141180206Y-97437945D01*
X141447440Y-97453330D01*
X141447440Y-97727970D01*
X141447440Y-98002610D01*
X141180206Y-98017995D01*
X140912972Y-98033381D01*
X140903229Y-98593301D01*
X140900378Y-98760952D01*
X140896161Y-99022732D01*
X140892685Y-99254535D01*
X140890503Y-99420455D01*
X140887520Y-99687689D01*
X140075752Y-99687689D01*
X139263983Y-99687689D01*
X139248597Y-99420455D01*
X139233212Y-99153220D01*
X138965977Y-99137835D01*
X138698743Y-99122449D01*
X138698743Y-98845150D01*
X138698743Y-98567851D01*
X139261324Y-98567850D01*
X139823903Y-98567850D01*
X139808517Y-98300615D01*
X139793132Y-98033381D01*
X139245937Y-98018933D01*
X138698743Y-98004486D01*
X138698743Y-97728908D01*
X138698743Y-97453330D01*
X138965977Y-97437945D01*
X139233212Y-97422559D01*
X139248597Y-97155325D01*
X139263983Y-96888090D01*
X139515832Y-96888090D01*
X139767681Y-96888090D01*
X139767681Y-97448010D01*
X139767681Y-98007930D01*
X140073752Y-98007930D01*
X140379822Y-98007930D01*
X140375558Y-97435284D01*
X140374460Y-97254003D01*
X140373648Y-96991197D01*
X140373785Y-96759959D01*
X140374899Y-96595405D01*
X140378502Y-96328170D01*
X140633011Y-96328170D01*
X140887520Y-96328170D01*
X140891043Y-96595405D01*
G37*
G36*
X149897140Y-101392900D02*
G01*
X149897140Y-102487288D01*
X149645291Y-102487288D01*
X149393442Y-102487288D01*
X149378056Y-102220054D01*
X149362671Y-101952820D01*
X149082711Y-101952820D01*
X148802751Y-101952820D01*
X148788795Y-102805425D01*
X148774838Y-103658029D01*
X149361440Y-103658030D01*
X149948041Y-103658029D01*
X149948041Y-103098110D01*
X149948041Y-102538190D01*
X150199890Y-102538190D01*
X150451739Y-102538190D01*
X150467125Y-102805425D01*
X150482510Y-103072659D01*
X150749745Y-103088045D01*
X151016979Y-103103430D01*
X151016979Y-103352619D01*
X151016979Y-103601808D01*
X150749745Y-103617194D01*
X150482510Y-103632579D01*
X150467245Y-103925264D01*
X150451978Y-104217950D01*
X149362671Y-104217950D01*
X148273362Y-104217951D01*
X148258097Y-103925264D01*
X148242831Y-103632579D01*
X147695637Y-103618132D01*
X147148442Y-103603683D01*
X147148442Y-103070936D01*
X147148442Y-102538189D01*
X147402951Y-102538189D01*
X147657460Y-102538189D01*
X147657460Y-102820690D01*
X147657461Y-103103191D01*
X147950146Y-103087925D01*
X148242831Y-103072659D01*
X148242831Y-102512739D01*
X148242831Y-101952820D01*
X147695637Y-101938372D01*
X147148442Y-101923924D01*
X147148441Y-101672130D01*
X147148442Y-101420336D01*
X148255556Y-101406618D01*
X149362671Y-101392900D01*
X149377118Y-100845705D01*
X149391566Y-100298511D01*
X149644353Y-100298511D01*
X149897140Y-100298511D01*
X149897140Y-101392900D01*
G37*
G36*
X140241458Y-84060900D02*
G01*
X140723884Y-84061333D01*
X141120324Y-84062481D01*
X141439215Y-84064691D01*
X141688994Y-84068309D01*
X141878096Y-84073680D01*
X142014959Y-84081153D01*
X142108020Y-84091071D01*
X142165714Y-84103782D01*
X142196479Y-84119631D01*
X142208751Y-84138965D01*
X142210966Y-84162131D01*
X142210403Y-84176041D01*
X142203116Y-84197443D01*
X142180407Y-84215133D01*
X142133638Y-84229532D01*
X142054171Y-84241060D01*
X141933367Y-84250137D01*
X141762590Y-84257183D01*
X141533200Y-84262618D01*
X141236560Y-84266864D01*
X140864032Y-84270339D01*
X140406978Y-84273464D01*
X139856759Y-84276660D01*
X137502550Y-84289894D01*
X137502550Y-94572058D01*
X137502550Y-104854222D01*
X147415677Y-104867076D01*
X157328803Y-104879930D01*
X157328803Y-94572186D01*
X157328803Y-84264443D01*
X154987320Y-84264443D01*
X154659557Y-84264420D01*
X154165681Y-84264115D01*
X153759957Y-84263150D01*
X153433723Y-84261150D01*
X153178311Y-84257736D01*
X152985063Y-84252533D01*
X152845314Y-84245164D01*
X152750400Y-84235252D01*
X152691659Y-84222419D01*
X152660427Y-84206291D01*
X152648041Y-84186490D01*
X152645837Y-84162639D01*
X152647423Y-84141608D01*
X152657997Y-84121791D01*
X152686001Y-84105512D01*
X152739873Y-84092424D01*
X152828051Y-84082179D01*
X152958971Y-84074429D01*
X153141071Y-84068825D01*
X153382788Y-84065022D01*
X153692560Y-84062668D01*
X154078823Y-84061418D01*
X154550016Y-84060924D01*
X155114574Y-84060836D01*
X157583312Y-84060836D01*
X157583312Y-94572058D01*
X157583312Y-105083280D01*
X147428402Y-105083280D01*
X137273492Y-105083280D01*
X137273492Y-94572058D01*
X137273492Y-84060836D01*
X139742230Y-84060836D01*
X140241458Y-84060900D01*
G37*
G36*
X143178103Y-87598511D02*
G01*
X143178103Y-88438391D01*
X143458061Y-88438390D01*
X143738021Y-88438391D01*
X143738021Y-88158431D01*
X143738021Y-87878471D01*
X144017981Y-87878471D01*
X144297941Y-87878471D01*
X144297941Y-88158431D01*
X144297940Y-88438391D01*
X144577901Y-88438391D01*
X144857862Y-88438391D01*
X144857862Y-89278270D01*
X144857862Y-90118150D01*
X145137821Y-90118150D01*
X145417781Y-90118150D01*
X145417781Y-89558230D01*
X145417781Y-88998311D01*
X145697741Y-88998311D01*
X145977701Y-88998311D01*
X145977701Y-89278270D01*
X145977701Y-89558230D01*
X146537621Y-89558230D01*
X147097540Y-89558230D01*
X147097540Y-90118150D01*
X147097540Y-90678070D01*
X146537621Y-90678070D01*
X145977701Y-90678070D01*
X145977702Y-90398110D01*
X145977701Y-90118150D01*
X145697741Y-90118149D01*
X145417781Y-90118150D01*
X145417781Y-90398110D01*
X145417781Y-90678070D01*
X145697741Y-90678071D01*
X145977701Y-90678070D01*
X145977701Y-90958030D01*
X145977701Y-91237989D01*
X145417781Y-91237990D01*
X144857861Y-91237990D01*
X144857861Y-90678071D01*
X144857862Y-90118150D01*
X144577901Y-90118150D01*
X144297940Y-90118150D01*
X144297941Y-89838190D01*
X144297941Y-89558230D01*
X144017981Y-89558230D01*
X143738021Y-89558230D01*
X143738021Y-90116483D01*
X143738021Y-90674736D01*
X143165376Y-90689128D01*
X142592731Y-90703521D01*
X142577345Y-90970755D01*
X142561960Y-91237990D01*
X142310111Y-91237990D01*
X142058262Y-91237990D01*
X142058262Y-90958030D01*
X142058262Y-90678070D01*
X142338222Y-90678070D01*
X142618182Y-90678071D01*
X142618181Y-90118150D01*
X142618182Y-89558230D01*
X142898142Y-89558230D01*
X143178102Y-89558230D01*
X143178102Y-88998311D01*
X143178103Y-88438391D01*
X142898142Y-88438391D01*
X142618181Y-88438391D01*
X142618181Y-87598511D01*
X142618182Y-86758631D01*
X142898142Y-86758631D01*
X143178102Y-86758631D01*
X143178103Y-87598511D01*
G37*
G36*
X147360859Y-93426958D02*
G01*
X147423002Y-93426982D01*
X147773095Y-93428045D01*
X148038381Y-93431515D01*
X148233591Y-93438561D01*
X148373459Y-93450349D01*
X148472713Y-93468049D01*
X148546088Y-93492827D01*
X148608314Y-93525851D01*
X148630766Y-93540092D01*
X148694655Y-93591894D01*
X148743749Y-93660187D01*
X148779677Y-93757151D01*
X148804072Y-93894964D01*
X148818566Y-94085807D01*
X148824789Y-94341860D01*
X148824374Y-94675300D01*
X148818950Y-95098310D01*
X148802752Y-96133579D01*
X148659932Y-96256325D01*
X148657152Y-96258713D01*
X148608341Y-96298141D01*
X148556728Y-96327855D01*
X148488171Y-96349230D01*
X148388525Y-96363635D01*
X148243647Y-96372450D01*
X148039397Y-96377045D01*
X147761627Y-96378794D01*
X147396197Y-96379072D01*
X146275281Y-96379072D01*
X146126491Y-96230281D01*
X145977702Y-96081492D01*
X145977701Y-95318407D01*
X145977701Y-95318406D01*
X146343126Y-95318406D01*
X146351580Y-95438694D01*
X146375627Y-95598613D01*
X146419415Y-95707413D01*
X146493196Y-95797865D01*
X146536551Y-95837046D01*
X146726777Y-95944201D01*
X146944971Y-95992257D01*
X147170272Y-95986016D01*
X147381819Y-95930281D01*
X147558751Y-95829858D01*
X147680208Y-95689548D01*
X147725329Y-95514156D01*
X147729206Y-95439680D01*
X147765539Y-95375403D01*
X147864168Y-95361036D01*
X148014374Y-95321718D01*
X148169201Y-95200675D01*
X148298529Y-95019053D01*
X148387361Y-94798423D01*
X148420703Y-94560363D01*
X148409236Y-94456827D01*
X148342916Y-94255820D01*
X148236706Y-94066454D01*
X148112736Y-93933763D01*
X148049626Y-93899300D01*
X147894906Y-93848840D01*
X147704481Y-93811384D01*
X147505206Y-93789432D01*
X147323930Y-93785485D01*
X147187508Y-93802041D01*
X147122791Y-93841600D01*
X147119065Y-93858588D01*
X147111086Y-93966201D01*
X147106482Y-94147683D01*
X147105603Y-94382658D01*
X147108805Y-94650751D01*
X147111494Y-94786710D01*
X147117766Y-95034593D01*
X147126322Y-95203327D01*
X147139864Y-95308711D01*
X147161093Y-95366543D01*
X147192712Y-95392620D01*
X147237423Y-95402740D01*
X147266570Y-95407603D01*
X147323245Y-95440147D01*
X147299260Y-95517269D01*
X147286503Y-95537852D01*
X147199872Y-95597854D01*
X147043588Y-95615545D01*
X146925962Y-95608910D01*
X146840973Y-95571770D01*
X146790870Y-95484977D01*
X146754583Y-95356972D01*
X146754963Y-95130935D01*
X146843031Y-94939932D01*
X146872153Y-94895631D01*
X146921700Y-94770548D01*
X146944032Y-94640029D01*
X146935461Y-94537329D01*
X146892298Y-94495705D01*
X146884399Y-94496269D01*
X146794776Y-94520061D01*
X146666621Y-94568048D01*
X146531280Y-94647349D01*
X146410749Y-94800742D01*
X146349624Y-95020733D01*
X146343126Y-95318406D01*
X145977701Y-95318406D01*
X145977701Y-94902920D01*
X145977701Y-93724347D01*
X146126491Y-93575557D01*
X146275280Y-93426767D01*
X147360859Y-93426958D01*
G37*
G36*
X152187721Y-94343000D02*
G01*
X152187721Y-94597509D01*
X151907761Y-94597509D01*
X151627801Y-94597509D01*
X151627801Y-94902920D01*
X151627802Y-95208331D01*
X151907761Y-95208331D01*
X152187721Y-95208331D01*
X152187721Y-95488291D01*
X152187721Y-95768250D01*
X152467681Y-95768250D01*
X152747641Y-95768249D01*
X152747641Y-96048210D01*
X152747641Y-96328170D01*
X153027601Y-96328170D01*
X153307560Y-96328170D01*
X153307560Y-96608130D01*
X153307560Y-96888089D01*
X153867480Y-96888090D01*
X154427400Y-96888090D01*
X154427401Y-97168050D01*
X154427400Y-97448010D01*
X155547240Y-97448011D01*
X156667079Y-97448010D01*
X156667079Y-97727970D01*
X156667079Y-98007930D01*
X156387120Y-98007930D01*
X156107160Y-98007930D01*
X156107160Y-98287890D01*
X156107160Y-98567850D01*
X156387120Y-98567850D01*
X156667079Y-98567850D01*
X156667079Y-99127769D01*
X156667079Y-99687689D01*
X155827200Y-99687689D01*
X154987320Y-99687689D01*
X154987320Y-99407729D01*
X154987320Y-99127769D01*
X154707361Y-99127769D01*
X154427400Y-99127769D01*
X154427400Y-98287890D01*
X154427400Y-98285350D01*
X154987320Y-98285350D01*
X154987320Y-98567850D01*
X155267279Y-98567850D01*
X155547240Y-98567850D01*
X155547240Y-98847810D01*
X155547240Y-99127770D01*
X155855311Y-99127770D01*
X156163382Y-99127769D01*
X156147996Y-98860535D01*
X156132611Y-98593301D01*
X155867947Y-98578004D01*
X155603284Y-98562708D01*
X155587987Y-98298044D01*
X155572691Y-98033381D01*
X155280005Y-98018115D01*
X154987320Y-98002849D01*
X154987320Y-98285350D01*
X154427400Y-98285350D01*
X154427400Y-98002850D01*
X154427400Y-97448010D01*
X153867480Y-97448010D01*
X153307560Y-97448011D01*
X153307560Y-97727970D01*
X153307560Y-98005981D01*
X152174995Y-98019681D01*
X151042430Y-98033381D01*
X151027045Y-98300615D01*
X151011659Y-98567850D01*
X150759810Y-98567850D01*
X150507962Y-98567850D01*
X150507961Y-98287890D01*
X150507961Y-98007929D01*
X150787921Y-98007930D01*
X151067881Y-98007930D01*
X151067881Y-97727970D01*
X151067880Y-97448010D01*
X150787921Y-97448010D01*
X150507961Y-97448010D01*
X150507962Y-97168050D01*
X150507961Y-96888090D01*
X150759810Y-96888090D01*
X151011659Y-96888089D01*
X151027045Y-97155326D01*
X151042430Y-97422559D01*
X151615075Y-97436952D01*
X152187721Y-97451344D01*
X152187721Y-97448010D01*
X152187721Y-96888090D01*
X152747641Y-96888090D01*
X152747642Y-97168050D01*
X152747641Y-97448010D01*
X153027601Y-97448010D01*
X153307560Y-97448011D01*
X153307560Y-97168050D01*
X153307560Y-96888089D01*
X153027601Y-96888090D01*
X152747641Y-96888090D01*
X152187721Y-96888090D01*
X152187721Y-96609797D01*
X152187721Y-95768250D01*
X151910301Y-95768250D01*
X151632881Y-95768250D01*
X151617616Y-95475565D01*
X151602350Y-95182880D01*
X151335116Y-95167494D01*
X151067880Y-95152109D01*
X151067881Y-94620300D01*
X151067881Y-94088491D01*
X151627801Y-94088491D01*
X152187721Y-94088491D01*
X152187721Y-94343000D01*
G37*
G36*
X141457506Y-95475565D02*
G01*
X141472890Y-95742800D01*
X141737555Y-95758096D01*
X142002218Y-95773392D01*
X142017515Y-96038056D01*
X142032811Y-96302719D01*
X142297474Y-96318016D01*
X142562138Y-96333312D01*
X142577434Y-96597976D01*
X142592731Y-96862639D01*
X142885416Y-96877905D01*
X143178102Y-96893170D01*
X143178103Y-97170590D01*
X143178102Y-97448010D01*
X143458061Y-97448010D01*
X143738022Y-97448010D01*
X143738021Y-98007930D01*
X143738021Y-98567850D01*
X143459729Y-98567850D01*
X143178103Y-98567850D01*
X143178102Y-98287890D01*
X143178102Y-98007929D01*
X142906625Y-98007929D01*
X142800910Y-98010489D01*
X142667486Y-98022800D01*
X142601214Y-98041864D01*
X142590268Y-98066021D01*
X142573773Y-98171034D01*
X142567280Y-98321824D01*
X142567280Y-98567850D01*
X142872691Y-98567851D01*
X143178103Y-98567850D01*
X143178103Y-99155880D01*
X143178102Y-99743911D01*
X143445337Y-99728526D01*
X143712570Y-99713140D01*
X143726963Y-99140495D01*
X143741356Y-98567850D01*
X144297940Y-98567850D01*
X144857862Y-98567850D01*
X144857861Y-98287890D01*
X144857861Y-98007929D01*
X145417781Y-98007930D01*
X145977701Y-98007930D01*
X145977702Y-98287890D01*
X145977701Y-98567850D01*
X146257661Y-98567850D01*
X146537621Y-98567850D01*
X146537621Y-98847810D01*
X146537621Y-99127769D01*
X145976727Y-99127769D01*
X145417781Y-99127769D01*
X145417781Y-98847810D01*
X145417781Y-98567850D01*
X145137821Y-98567850D01*
X144857862Y-98567850D01*
X144857861Y-98847810D01*
X144857861Y-99127769D01*
X145137821Y-99127769D01*
X145415833Y-99127769D01*
X145429533Y-100260335D01*
X145443232Y-101392901D01*
X145710465Y-101408285D01*
X145977702Y-101423671D01*
X145977701Y-101980931D01*
X145977701Y-102538189D01*
X146257661Y-102538190D01*
X146537621Y-102538190D01*
X146537621Y-103098110D01*
X146537621Y-103658030D01*
X146817580Y-103658030D01*
X147097540Y-103658030D01*
X147097540Y-103937990D01*
X147097540Y-104217950D01*
X146257661Y-104217950D01*
X145417781Y-104217950D01*
X145417781Y-103632579D01*
X145417781Y-103047208D01*
X145137821Y-103047208D01*
X144857861Y-103047208D01*
X144857861Y-103327169D01*
X144857861Y-103607128D01*
X144580561Y-103607128D01*
X144303261Y-103607128D01*
X144287876Y-103339894D01*
X144272490Y-103072659D01*
X144007827Y-103057363D01*
X143743164Y-103042066D01*
X143727867Y-102777403D01*
X143712570Y-102512739D01*
X143445337Y-102497354D01*
X143178102Y-102481968D01*
X143178102Y-102230119D01*
X143178102Y-101978270D01*
X143458061Y-101978270D01*
X143738021Y-101978270D01*
X143738021Y-102258230D01*
X143738022Y-102538190D01*
X144577901Y-102538189D01*
X145417781Y-102538190D01*
X145417781Y-101952820D01*
X145417781Y-101367449D01*
X145137821Y-101367449D01*
X144857861Y-101367449D01*
X144857862Y-100247609D01*
X144857861Y-99127769D01*
X144577901Y-99127770D01*
X144297941Y-99127769D01*
X144297941Y-100527569D01*
X144297941Y-101927369D01*
X144017981Y-101927369D01*
X143738021Y-101927369D01*
X143738021Y-101647409D01*
X143738022Y-101367449D01*
X143178102Y-101367449D01*
X142618182Y-101367449D01*
X142618182Y-100863751D01*
X142618182Y-100555680D01*
X143178102Y-100555680D01*
X143178102Y-100863751D01*
X143445336Y-100848365D01*
X143712570Y-100832979D01*
X143727836Y-100540295D01*
X143743102Y-100247609D01*
X143460602Y-100247609D01*
X143178103Y-100247609D01*
X143178102Y-100555680D01*
X142618182Y-100555680D01*
X142618181Y-100245069D01*
X142618182Y-99122689D01*
X142325496Y-99137955D01*
X142032811Y-99153220D01*
X142017425Y-99420455D01*
X142002040Y-99687689D01*
X141750191Y-99687689D01*
X141498342Y-99687689D01*
X141498342Y-99407729D01*
X141498342Y-99127770D01*
X141778302Y-99127769D01*
X142058262Y-99127769D01*
X142058262Y-98847810D01*
X142058262Y-98567850D01*
X141778302Y-98567851D01*
X141498342Y-98567850D01*
X141498341Y-98287890D01*
X141498342Y-98007930D01*
X141778302Y-98007929D01*
X142058262Y-98007930D01*
X142058262Y-97727970D01*
X142058262Y-97448010D01*
X141778302Y-97448010D01*
X141498342Y-97448011D01*
X141498342Y-97168050D01*
X141498342Y-96888089D01*
X141750191Y-96888089D01*
X142002040Y-96888090D01*
X142017425Y-97155325D01*
X142032812Y-97422559D01*
X142325496Y-97437825D01*
X142618182Y-97453090D01*
X142618181Y-97170590D01*
X142618182Y-96888090D01*
X142338222Y-96888090D01*
X142058262Y-96888090D01*
X142058262Y-96608130D01*
X142058262Y-96328170D01*
X141498342Y-96328170D01*
X140938422Y-96328170D01*
X140938422Y-95768250D01*
X140938422Y-95208331D01*
X141190271Y-95208331D01*
X141442120Y-95208330D01*
X141457506Y-95475565D01*
G37*
G36*
X146539263Y-92107102D02*
G01*
X146613794Y-92135287D01*
X146659212Y-92207584D01*
X146685428Y-92343225D01*
X146702353Y-92561437D01*
X146715777Y-92790495D01*
X146919384Y-92790495D01*
X147122991Y-92790495D01*
X147154850Y-92493947D01*
X147157670Y-92468376D01*
X147189089Y-92273516D01*
X147237139Y-92160948D01*
X147314768Y-92113017D01*
X147434927Y-92112067D01*
X147459487Y-92115069D01*
X147528758Y-92133383D01*
X147568403Y-92180801D01*
X147590358Y-92281495D01*
X147606557Y-92459633D01*
X147632009Y-92790495D01*
X147861067Y-92790495D01*
X148090126Y-92790495D01*
X148115576Y-92459632D01*
X148119937Y-92404068D01*
X148136492Y-92248579D01*
X148161933Y-92164196D01*
X148208192Y-92126748D01*
X148287208Y-92112067D01*
X148299390Y-92110750D01*
X148414621Y-92113796D01*
X148485106Y-92163860D01*
X148523548Y-92279131D01*
X148542653Y-92477799D01*
X148551301Y-92601279D01*
X148565343Y-92728612D01*
X148578921Y-92785225D01*
X148598454Y-92797749D01*
X148688275Y-92846889D01*
X148821413Y-92915556D01*
X149039502Y-93052016D01*
X149232561Y-93260420D01*
X149354741Y-93528571D01*
X149423876Y-93757629D01*
X149761924Y-93772671D01*
X149779404Y-93773461D01*
X149954847Y-93785062D01*
X150055377Y-93805909D01*
X150105943Y-93845494D01*
X150131494Y-93913312D01*
X150141922Y-94025353D01*
X150089465Y-94120902D01*
X149956760Y-94173925D01*
X149735413Y-94190295D01*
X149433445Y-94190295D01*
X149448960Y-94432078D01*
X149464474Y-94673862D01*
X149764694Y-94699313D01*
X149933649Y-94723616D01*
X150091347Y-94784103D01*
X150154303Y-94874048D01*
X150120746Y-94991998D01*
X150088675Y-95026403D01*
X149969637Y-95076570D01*
X149764694Y-95106528D01*
X149464474Y-95131978D01*
X149448960Y-95373761D01*
X149433445Y-95615545D01*
X149712558Y-95615545D01*
X149907704Y-95630107D01*
X150069756Y-95689091D01*
X150140855Y-95793203D01*
X150120752Y-95942244D01*
X150091173Y-95980607D01*
X149995489Y-96013111D01*
X149819504Y-96022759D01*
X149616008Y-96029513D01*
X149477958Y-96056253D01*
X149407719Y-96109974D01*
X149388122Y-96197635D01*
X149374731Y-96262755D01*
X149315939Y-96400612D01*
X149226219Y-96555145D01*
X149170815Y-96633585D01*
X149015498Y-96792556D01*
X148819005Y-96901520D01*
X148808337Y-96905976D01*
X148662036Y-96977751D01*
X148589312Y-97047296D01*
X148566487Y-97136660D01*
X148561482Y-97220382D01*
X148550172Y-97365045D01*
X148531497Y-97560748D01*
X148528163Y-97580500D01*
X148461691Y-97677921D01*
X148345224Y-97725303D01*
X148219797Y-97703812D01*
X148202658Y-97693501D01*
X148150723Y-97632269D01*
X148120895Y-97520630D01*
X148105267Y-97332983D01*
X148094641Y-97169523D01*
X148074776Y-97065952D01*
X148036674Y-97017109D01*
X147970419Y-96998400D01*
X147878683Y-96994280D01*
X147728636Y-97012096D01*
X147669369Y-97032885D01*
X147627996Y-97079554D01*
X147610298Y-97174877D01*
X147606558Y-97345385D01*
X147605944Y-97417132D01*
X147594854Y-97567167D01*
X147563754Y-97653070D01*
X147504755Y-97702519D01*
X147432158Y-97728965D01*
X147301749Y-97702841D01*
X147253572Y-97669434D01*
X147195417Y-97583552D01*
X147158961Y-97440856D01*
X147136559Y-97218952D01*
X147131639Y-97152459D01*
X147110344Y-97056741D01*
X147050016Y-97020808D01*
X146919384Y-97015345D01*
X146715777Y-97015345D01*
X146690297Y-97335355D01*
X146680360Y-97432953D01*
X146638502Y-97618217D01*
X146567696Y-97720474D01*
X146461268Y-97751862D01*
X146409974Y-97746112D01*
X146323626Y-97687476D01*
X146270038Y-97554930D01*
X146242352Y-97335427D01*
X146221775Y-97012267D01*
X145997251Y-96919403D01*
X145875832Y-96856656D01*
X145675144Y-96695438D01*
X145520349Y-96497658D01*
X145438076Y-96293140D01*
X145433391Y-96269354D01*
X145392950Y-96145746D01*
X145319761Y-96071228D01*
X145190878Y-96031660D01*
X144983355Y-96012901D01*
X144833546Y-96002711D01*
X144729811Y-95982477D01*
X144681114Y-95942886D01*
X144662145Y-95872905D01*
X144660766Y-95809863D01*
X144718838Y-95700774D01*
X144864098Y-95636569D01*
X145099437Y-95615545D01*
X145372457Y-95615545D01*
X145356943Y-95373761D01*
X145341428Y-95131978D01*
X145041209Y-95106527D01*
X144872253Y-95082224D01*
X144714554Y-95021737D01*
X144651600Y-94931792D01*
X144660957Y-94898902D01*
X145723192Y-94898902D01*
X145723192Y-96230309D01*
X145923053Y-96444670D01*
X146122914Y-96659032D01*
X147259225Y-96675712D01*
X147367963Y-96677236D01*
X147768637Y-96680613D01*
X148083987Y-96677345D01*
X148327283Y-96665173D01*
X148511792Y-96641838D01*
X148650782Y-96605082D01*
X148757521Y-96552643D01*
X148845278Y-96482265D01*
X148927321Y-96391686D01*
X149082711Y-96203171D01*
X149082711Y-94893465D01*
X149082711Y-93583759D01*
X148886985Y-93378009D01*
X148691259Y-93172258D01*
X147404844Y-93172258D01*
X146118429Y-93172258D01*
X145920810Y-93369877D01*
X145723192Y-93567496D01*
X145723192Y-94898902D01*
X144660957Y-94898902D01*
X144685156Y-94813842D01*
X144717227Y-94779437D01*
X144836266Y-94729271D01*
X145041209Y-94699313D01*
X145341428Y-94673862D01*
X145356943Y-94432078D01*
X145372457Y-94190295D01*
X145070490Y-94190295D01*
X144899570Y-94181881D01*
X144745920Y-94140235D01*
X144670752Y-94057274D01*
X144663072Y-93925862D01*
X144680176Y-93865035D01*
X144728016Y-93824578D01*
X144829723Y-93800552D01*
X145009239Y-93783080D01*
X145338773Y-93757629D01*
X145408925Y-93567496D01*
X145432677Y-93503120D01*
X145446907Y-93466637D01*
X145598143Y-93205532D01*
X145806075Y-92998419D01*
X146047797Y-92868912D01*
X146119844Y-92843560D01*
X146196585Y-92796497D01*
X146227119Y-92716921D01*
X146232905Y-92570215D01*
X146234065Y-92506829D01*
X146245248Y-92339117D01*
X146264292Y-92217851D01*
X146276939Y-92181051D01*
X146338888Y-92119642D01*
X146466235Y-92103321D01*
X146539263Y-92107102D01*
G37*
G36*
X149348684Y-86465946D02*
G01*
X149362671Y-87293100D01*
X149909865Y-87307548D01*
X150457059Y-87321995D01*
X150460583Y-87587508D01*
X150461915Y-87671823D01*
X150467011Y-87908872D01*
X150473308Y-88132980D01*
X150482510Y-88412939D01*
X151055156Y-88427332D01*
X151627802Y-88441725D01*
X151627802Y-88438391D01*
X152187721Y-88438391D01*
X152187721Y-89278270D01*
X152187721Y-90118150D01*
X153027601Y-90118150D01*
X153867480Y-90118150D01*
X153867480Y-89278270D01*
X153867480Y-88438391D01*
X153027601Y-88438391D01*
X152187721Y-88438391D01*
X151627802Y-88438391D01*
X151627801Y-88160098D01*
X151627801Y-87878471D01*
X151908992Y-87878471D01*
X152190182Y-87878471D01*
X152176226Y-87025866D01*
X152162270Y-86173260D01*
X151882310Y-86164058D01*
X151790536Y-86161541D01*
X151574925Y-86157337D01*
X151317246Y-86153741D01*
X151055156Y-86151333D01*
X150507961Y-86147810D01*
X150507961Y-85893301D01*
X150507961Y-85638792D01*
X151627802Y-85638792D01*
X152747641Y-85638792D01*
X152747642Y-86198711D01*
X152747641Y-86758631D01*
X153027601Y-86758631D01*
X153307560Y-86758631D01*
X153307560Y-87038591D01*
X153307561Y-87318551D01*
X153027601Y-87318551D01*
X152747641Y-87318551D01*
X152747641Y-87598512D01*
X152747641Y-87878471D01*
X153307560Y-87878471D01*
X153867480Y-87878471D01*
X153867480Y-87598511D01*
X153867480Y-87318551D01*
X154147439Y-87318551D01*
X154427400Y-87318551D01*
X154427400Y-87598512D01*
X154427400Y-87878471D01*
X154707360Y-87878471D01*
X154987320Y-87878471D01*
X154987320Y-88160971D01*
X154987320Y-88443471D01*
X155280005Y-88428205D01*
X155572691Y-88412940D01*
X155587987Y-88148276D01*
X155603284Y-87883613D01*
X155867947Y-87868316D01*
X156132611Y-87853020D01*
X156147996Y-87585785D01*
X156163382Y-87318551D01*
X156415231Y-87318551D01*
X156667079Y-87318551D01*
X156667079Y-88158431D01*
X156667079Y-88998311D01*
X156387120Y-88998311D01*
X156107160Y-88998311D01*
X156107160Y-89278270D01*
X156107160Y-89558230D01*
X156387120Y-89558230D01*
X156667079Y-89558230D01*
X156667079Y-90118150D01*
X156667079Y-90678070D01*
X156412570Y-90678070D01*
X156158061Y-90678070D01*
X156154538Y-90410836D01*
X156153212Y-90326421D01*
X156148115Y-90088315D01*
X156141813Y-89863640D01*
X156132611Y-89583681D01*
X155839925Y-89568416D01*
X155547240Y-89553151D01*
X155547240Y-89835650D01*
X155547240Y-90118150D01*
X155267279Y-90118150D01*
X154987320Y-90118150D01*
X154987320Y-90398110D01*
X154987320Y-90678070D01*
X155547240Y-90678070D01*
X156107160Y-90678070D01*
X156107160Y-91237990D01*
X156107160Y-91797910D01*
X154707361Y-91797910D01*
X153307560Y-91797911D01*
X153307560Y-92077870D01*
X153307560Y-92357830D01*
X153027601Y-92357830D01*
X152747641Y-92357830D01*
X152747641Y-93223160D01*
X152747642Y-94088491D01*
X153027601Y-94088491D01*
X153307560Y-94088491D01*
X153307560Y-94343000D01*
X153307560Y-94597509D01*
X153030261Y-94597509D01*
X152752961Y-94597509D01*
X152737575Y-94330274D01*
X152722190Y-94063039D01*
X152457526Y-94047744D01*
X152192863Y-94032447D01*
X152177567Y-93767784D01*
X152162270Y-93503120D01*
X151882310Y-93493917D01*
X151794886Y-93491247D01*
X151554698Y-93485222D01*
X151335116Y-93481192D01*
X151067880Y-93477669D01*
X151067880Y-93225820D01*
X151067881Y-92973971D01*
X151335116Y-92958586D01*
X151602350Y-92943199D01*
X151617645Y-92678537D01*
X151632943Y-92413873D01*
X151897606Y-92398577D01*
X152162270Y-92383280D01*
X152177655Y-92116046D01*
X152193041Y-91848812D01*
X152457615Y-91845288D01*
X152541875Y-91843952D01*
X152778349Y-91838857D01*
X153002151Y-91832563D01*
X153282110Y-91823361D01*
X153296502Y-91250715D01*
X153310895Y-90678070D01*
X153862400Y-90678070D01*
X153877666Y-90970755D01*
X153892931Y-91263441D01*
X154160166Y-91278826D01*
X154427400Y-91294212D01*
X154427400Y-90986141D01*
X154427400Y-90678071D01*
X154144900Y-90678070D01*
X153862400Y-90678070D01*
X153310895Y-90678070D01*
X152469348Y-90678070D01*
X151627801Y-90678070D01*
X151627801Y-90955490D01*
X151627801Y-91232910D01*
X151335116Y-91248175D01*
X151042430Y-91263441D01*
X151027045Y-91530674D01*
X151011659Y-91797911D01*
X149919930Y-91797911D01*
X148828202Y-91797910D01*
X148825557Y-91263441D01*
X148825494Y-91250715D01*
X148825034Y-91168762D01*
X148822990Y-90888434D01*
X148821364Y-90703521D01*
X149362671Y-90703521D01*
X149362671Y-90983481D01*
X149362671Y-91263441D01*
X149642631Y-91263441D01*
X149922591Y-91263440D01*
X149937856Y-90970755D01*
X149953122Y-90678070D01*
X150790461Y-90678070D01*
X151627801Y-90678070D01*
X151627801Y-90118150D01*
X151627801Y-89558230D01*
X151076365Y-89558230D01*
X150892337Y-89560143D01*
X150694153Y-89567238D01*
X150552894Y-89578346D01*
X150490995Y-89592165D01*
X150480273Y-89615405D01*
X150463622Y-89719488D01*
X150457059Y-89869466D01*
X150457059Y-90112831D01*
X150189825Y-90128216D01*
X149922591Y-90143601D01*
X149907294Y-90408265D01*
X149891998Y-90672928D01*
X149627334Y-90688225D01*
X149362671Y-90703521D01*
X148821364Y-90703521D01*
X148820050Y-90554119D01*
X148816536Y-90200846D01*
X148815612Y-90118150D01*
X149341039Y-90118150D01*
X149644540Y-90118150D01*
X149948040Y-90118150D01*
X149948041Y-89838190D01*
X149948041Y-89558230D01*
X150228001Y-89558230D01*
X150507961Y-89558230D01*
X150507962Y-89278270D01*
X150507961Y-88998311D01*
X149951045Y-88998311D01*
X149761286Y-89000792D01*
X149564962Y-89009601D01*
X149426634Y-89023284D01*
X149368199Y-89040267D01*
X149360651Y-89074797D01*
X149351031Y-89195737D01*
X149344324Y-89378777D01*
X149341654Y-89600187D01*
X149341039Y-90118150D01*
X148815612Y-90118150D01*
X148812768Y-89863641D01*
X148802751Y-89023761D01*
X148535516Y-89008376D01*
X148268282Y-88992990D01*
X148268282Y-88715691D01*
X148268281Y-88438391D01*
X147962871Y-88438391D01*
X147657460Y-88438391D01*
X147657460Y-88718352D01*
X147657460Y-88998311D01*
X147937420Y-88998311D01*
X148217380Y-88998311D01*
X148217380Y-89278270D01*
X148217380Y-89558230D01*
X147965531Y-89558230D01*
X147713682Y-89558230D01*
X147698297Y-89290996D01*
X147682912Y-89023761D01*
X147110266Y-89009369D01*
X146537621Y-88994976D01*
X146537621Y-88716684D01*
X146537621Y-88441725D01*
X147110265Y-88427332D01*
X147682911Y-88412940D01*
X147698208Y-88148276D01*
X147713504Y-87883613D01*
X147802469Y-87878471D01*
X149331900Y-87878471D01*
X149347285Y-88145705D01*
X149362671Y-88412940D01*
X149655356Y-88428205D01*
X149948040Y-88443471D01*
X149948041Y-88160971D01*
X149948041Y-87878471D01*
X149639970Y-87878471D01*
X149331900Y-87878471D01*
X147802469Y-87878471D01*
X147978167Y-87868316D01*
X148242831Y-87853020D01*
X148258127Y-87588356D01*
X148273424Y-87323693D01*
X148538087Y-87308397D01*
X148802751Y-87293100D01*
X148802751Y-87013140D01*
X148802751Y-86733180D01*
X148535516Y-86717795D01*
X148268282Y-86702409D01*
X148268282Y-86170600D01*
X148268282Y-85638792D01*
X148801490Y-85638792D01*
X149334698Y-85638792D01*
X149348684Y-86465946D01*
G37*
%TD*%
%LPC*%
G36*
X102463144Y-142762438D02*
G01*
X100340974Y-144884608D01*
X96682104Y-141223198D01*
X98799194Y-139097218D01*
X102463144Y-142762438D01*
G37*
G36*
X102449174Y-45602358D02*
G01*
X98783954Y-49266308D01*
X96661784Y-47144138D01*
X100323194Y-43485268D01*
X102449174Y-45602358D01*
G37*
G36*
X113885901Y-131107449D02*
G01*
X111763731Y-133229619D01*
X108104861Y-129568209D01*
X110221951Y-127442229D01*
X113885901Y-131107449D01*
G37*
G36*
X198094964Y-47148520D02*
G01*
X195977874Y-49274500D01*
X192313924Y-45609280D01*
X194436094Y-43487110D01*
X198094964Y-47148520D01*
G37*
G36*
X114152915Y-57181462D02*
G01*
X110487695Y-60845412D01*
X108365525Y-58723242D01*
X112026935Y-55064372D01*
X114152915Y-57181462D01*
G37*
G36*
X186562367Y-129840134D02*
G01*
X182900957Y-133499004D01*
X180774977Y-131381914D01*
X184440197Y-127717964D01*
X186562367Y-129840134D01*
G37*
G36*
X186829069Y-58229975D02*
G01*
X184711979Y-60355955D01*
X181048029Y-56690735D01*
X183170199Y-54568565D01*
X186829069Y-58229975D01*
G37*
G36*
X197883896Y-140920240D02*
G01*
X194222486Y-144579110D01*
X192096506Y-142462020D01*
X195761726Y-138798070D01*
X197883896Y-140920240D01*
G37*
D16*
%TO.C,J14*%
X136061500Y-104255050D03*
D17*
X136061500Y-103004850D03*
%TD*%
D18*
%TO.C,J8*%
X179133199Y-124391485D03*
D19*
X177718985Y-125805699D03*
%TD*%
D20*
%TO.C,J9*%
X117141500Y-125899000D03*
D21*
X115727286Y-124484786D03*
%TD*%
D22*
%TO.C,J10*%
X115546801Y-63924515D03*
D23*
X116961015Y-62510301D03*
%TD*%
D24*
%TO.C,J5*%
X126276500Y-114084000D03*
D25*
X126276500Y-111544000D03*
X126276500Y-109004000D03*
X126276500Y-106464000D03*
X126276500Y-103924000D03*
X126276500Y-101384000D03*
%TD*%
D24*
%TO.C,J3*%
X168477500Y-114084000D03*
D25*
X168477500Y-111544000D03*
X168477500Y-109004000D03*
X168477500Y-106464000D03*
X168477500Y-103924000D03*
X168477500Y-101384000D03*
%TD*%
D24*
%TO.C,J4*%
X168477500Y-74204000D03*
D25*
X168477500Y-76744000D03*
X168477500Y-79284000D03*
X168477500Y-81824000D03*
X168477500Y-84364000D03*
X168477500Y-86904000D03*
%TD*%
D24*
%TO.C,J6*%
X126276500Y-74204000D03*
D25*
X126276500Y-76744000D03*
X126276500Y-79284000D03*
X126276500Y-81824000D03*
X126276500Y-84364000D03*
X126276500Y-86904000D03*
%TD*%
D26*
%TO.C,J1*%
X150267500Y-78064000D03*
X144487500Y-78064000D03*
D27*
X151697500Y-78584000D03*
D28*
X151697500Y-74384000D03*
D27*
X143057500Y-78584000D03*
D28*
X143057500Y-74384000D03*
%TD*%
D29*
%TO.C,J2*%
X161158501Y-80045600D03*
X158656499Y-80045600D03*
%TD*%
D30*
%TO.C,J7*%
X177666078Y-62332208D03*
D31*
X179080292Y-63746422D03*
%TD*%
D32*
%TO.C,J11*%
X156930000Y-112656500D03*
D33*
X156930000Y-114311500D03*
X154390000Y-111001500D03*
D32*
X154390000Y-112656500D03*
X151850000Y-112656500D03*
D33*
X151850000Y-114311500D03*
X149310000Y-111001501D03*
D32*
X149310000Y-112656500D03*
X146770000Y-112656500D03*
D33*
X146770000Y-114311500D03*
X144230000Y-111001500D03*
D32*
X144230000Y-112656500D03*
X141690000Y-112656500D03*
D33*
X141690000Y-114311500D03*
X139150000Y-111001500D03*
D32*
X139150000Y-112656500D03*
%TD*%
D33*
%TO.C,J13*%
X129347499Y-74214000D03*
D32*
X129347499Y-75869000D03*
D33*
X131887499Y-77524000D03*
D32*
X131887500Y-75869000D03*
D33*
X134427499Y-74214000D03*
D32*
X134427499Y-75869000D03*
X136967499Y-75869000D03*
D33*
X136967499Y-77524000D03*
%TD*%
D34*
%TO.C,J12*%
X155289499Y-75869000D03*
D33*
X155289500Y-74214000D03*
D34*
X157829499Y-75869000D03*
D33*
X157829499Y-77524000D03*
D34*
X160369498Y-75869000D03*
D33*
X160369499Y-74214000D03*
D34*
X162909499Y-75869000D03*
D33*
X162909499Y-77524000D03*
X165410499Y-74214000D03*
D34*
X165449499Y-75869000D03*
%TD*%
%LPD*%
M02*
