%TF.GenerationSoftware,KiCad,Pcbnew,9.0.0*%
%TF.CreationDate,2025-11-21T14:04:07-05:00*%
%TF.ProjectId,LiteWingV2.5C,4c697465-5769-46e6-9756-322e35432e6b,rev?*%
%TF.SameCoordinates,Original*%
%TF.FileFunction,Soldermask,Top*%
%TF.FilePolarity,Negative*%
%FSLAX46Y46*%
G04 Gerber Fmt 4.6, Leading zero omitted, Abs format (unit mm)*
G04 Created by KiCad (PCBNEW 9.0.0) date 2025-11-21 14:04:07*
%MOMM*%
%LPD*%
G01*
G04 APERTURE LIST*
G04 Aperture macros list*
%AMRoundRect*
0 Rectangle with rounded corners*
0 $1 Rounding radius*
0 $2 $3 $4 $5 $6 $7 $8 $9 X,Y pos of 4 corners*
0 Add a 4 corners polygon primitive as box body*
4,1,4,$2,$3,$4,$5,$6,$7,$8,$9,$2,$3,0*
0 Add four circle primitives for the rounded corners*
1,1,$1+$1,$2,$3*
1,1,$1+$1,$4,$5*
1,1,$1+$1,$6,$7*
1,1,$1+$1,$8,$9*
0 Add four rect primitives between the rounded corners*
20,1,$1+$1,$2,$3,$4,$5,0*
20,1,$1+$1,$4,$5,$6,$7,0*
20,1,$1+$1,$6,$7,$8,$9,0*
20,1,$1+$1,$8,$9,$2,$3,0*%
%AMRotRect*
0 Rectangle, with rotation*
0 The origin of the aperture is its center*
0 $1 length*
0 $2 width*
0 $3 Rotation angle, in degrees counterclockwise*
0 Add horizontal line*
21,1,$1,$2,0,0,$3*%
G04 Aperture macros list end*
%ADD10C,0.000000*%
%ADD11RoundRect,0.050800X0.500000X-0.500000X0.500000X0.500000X-0.500000X0.500000X-0.500000X-0.500000X0*%
%ADD12O,1.101600X1.101600*%
%ADD13RoundRect,0.218750X0.256250X-0.218750X0.256250X0.218750X-0.256250X0.218750X-0.256250X-0.218750X0*%
%ADD14RoundRect,0.200000X-0.200000X-0.275000X0.200000X-0.275000X0.200000X0.275000X-0.200000X0.275000X0*%
%ADD15RoundRect,0.225000X0.225000X0.250000X-0.225000X0.250000X-0.225000X-0.250000X0.225000X-0.250000X0*%
%ADD16RoundRect,0.200000X-0.275000X0.200000X-0.275000X-0.200000X0.275000X-0.200000X0.275000X0.200000X0*%
%ADD17R,1.600000X1.050000*%
%ADD18RoundRect,0.200000X0.275000X-0.200000X0.275000X0.200000X-0.275000X0.200000X-0.275000X-0.200000X0*%
%ADD19RoundRect,0.225000X-0.250000X0.225000X-0.250000X-0.225000X0.250000X-0.225000X0.250000X0.225000X0*%
%ADD20RoundRect,0.200000X0.200000X0.275000X-0.200000X0.275000X-0.200000X-0.275000X0.200000X-0.275000X0*%
%ADD21RotRect,0.600000X1.300000X135.000000*%
%ADD22RoundRect,0.218750X-0.256250X0.218750X-0.256250X-0.218750X0.256250X-0.218750X0.256250X0.218750X0*%
%ADD23RoundRect,0.200000X-0.335876X-0.053033X-0.053033X-0.335876X0.335876X0.053033X0.053033X0.335876X0*%
%ADD24RotRect,0.600000X1.300000X225.000000*%
%ADD25R,1.700000X1.700000*%
%ADD26O,1.700000X1.700000*%
%ADD27RoundRect,0.250000X1.000000X0.650000X-1.000000X0.650000X-1.000000X-0.650000X1.000000X-0.650000X0*%
%ADD28RoundRect,0.200000X0.053033X-0.335876X0.335876X-0.053033X-0.053033X0.335876X-0.335876X0.053033X0*%
%ADD29RoundRect,0.250000X0.000000X0.424264X-0.424264X0.000000X0.000000X-0.424264X0.424264X0.000000X0*%
%ADD30RoundRect,0.250000X0.424264X0.000000X0.000000X0.424264X-0.424264X0.000000X0.000000X-0.424264X0*%
%ADD31RoundRect,0.250000X-0.250000X-0.475000X0.250000X-0.475000X0.250000X0.475000X-0.250000X0.475000X0*%
%ADD32RoundRect,0.050800X-0.599950X-1.000000X0.599950X-1.000000X0.599950X1.000000X-0.599950X1.000000X0*%
%ADD33RotRect,0.600000X1.300000X315.000000*%
%ADD34RotRect,0.600000X1.300000X45.000000*%
%ADD35RoundRect,0.225000X-0.225000X-0.250000X0.225000X-0.250000X0.225000X0.250000X-0.225000X0.250000X0*%
%ADD36R,0.600000X1.240000*%
%ADD37R,0.300000X1.240000*%
%ADD38O,1.000000X2.100000*%
%ADD39O,1.000000X1.800000*%
%ADD40O,1.901600X1.901600*%
%ADD41R,1.500000X0.900000*%
%ADD42R,0.900000X1.500000*%
%ADD43C,0.600000*%
%ADD44R,3.900000X3.900000*%
%ADD45RoundRect,0.250000X-0.424264X0.000000X0.000000X-0.424264X0.424264X0.000000X0.000000X0.424264X0*%
%ADD46RoundRect,0.225000X-0.017678X0.335876X-0.335876X0.017678X0.017678X-0.335876X0.335876X-0.017678X0*%
%ADD47RoundRect,0.225000X-0.335876X-0.017678X-0.017678X-0.335876X0.335876X0.017678X0.017678X0.335876X0*%
%ADD48RoundRect,0.225000X0.335876X0.017678X0.017678X0.335876X-0.335876X-0.017678X-0.017678X-0.335876X0*%
%ADD49RoundRect,0.200000X0.335876X0.053033X0.053033X0.335876X-0.335876X-0.053033X-0.053033X-0.335876X0*%
%ADD50RoundRect,0.150000X-0.150000X0.512500X-0.150000X-0.512500X0.150000X-0.512500X0.150000X0.512500X0*%
%ADD51R,0.700000X1.525000*%
%ADD52R,3.402000X2.513000*%
%ADD53RoundRect,0.225000X0.250000X-0.225000X0.250000X0.225000X-0.250000X0.225000X-0.250000X-0.225000X0*%
%ADD54RoundRect,0.225000X0.017678X-0.335876X0.335876X-0.017678X-0.017678X0.335876X-0.335876X0.017678X0*%
%ADD55RoundRect,0.250000X0.000000X-0.424264X0.424264X0.000000X0.000000X0.424264X-0.424264X0.000000X0*%
%ADD56RoundRect,0.150000X-0.587500X-0.150000X0.587500X-0.150000X0.587500X0.150000X-0.587500X0.150000X0*%
%ADD57R,0.800000X0.350000*%
%ADD58R,0.350000X0.850000*%
%ADD59R,2.700000X2.600000*%
%ADD60RoundRect,0.200000X-0.053033X0.335876X-0.335876X0.053033X0.053033X-0.335876X0.335876X-0.053033X0*%
G04 APERTURE END LIST*
D10*
G36*
X198092424Y-47126930D02*
G01*
X195975334Y-49252910D01*
X192311384Y-45587690D01*
X194433554Y-43465520D01*
X198092424Y-47126930D01*
G37*
G36*
X114150375Y-57159872D02*
G01*
X110485155Y-60823822D01*
X108362985Y-58701652D01*
X112024395Y-55042782D01*
X114150375Y-57159872D01*
G37*
G36*
X186559827Y-129818544D02*
G01*
X182898417Y-133477414D01*
X180772437Y-131360324D01*
X184437657Y-127696374D01*
X186559827Y-129818544D01*
G37*
G36*
X113883361Y-131085859D02*
G01*
X111761191Y-133208029D01*
X108102321Y-129546619D01*
X110219411Y-127420639D01*
X113883361Y-131085859D01*
G37*
G36*
X102460604Y-142740848D02*
G01*
X100338434Y-144863018D01*
X96679564Y-141201608D01*
X98796654Y-139075628D01*
X102460604Y-142740848D01*
G37*
G36*
X197881356Y-140898650D02*
G01*
X194219946Y-144557520D01*
X192093966Y-142440430D01*
X195759186Y-138776480D01*
X197881356Y-140898650D01*
G37*
G36*
X186826529Y-58208385D02*
G01*
X184709439Y-60334365D01*
X181045489Y-56669145D01*
X183167659Y-54546975D01*
X186826529Y-58208385D01*
G37*
G36*
X102446634Y-45580768D02*
G01*
X98781414Y-49244718D01*
X96659244Y-47122548D01*
X100320654Y-43463678D01*
X102446634Y-45580768D01*
G37*
D11*
%TO.C,J14*%
X136061500Y-104255050D03*
D12*
X136061500Y-103004850D03*
%TD*%
D13*
%TO.C,LED4*%
X130135500Y-91198500D03*
X130135500Y-89623500D03*
%TD*%
D14*
%TO.C,R30*%
X129778500Y-116308000D03*
X131428500Y-116308000D03*
%TD*%
D15*
%TO.C,C9*%
X143129500Y-94363000D03*
X141579500Y-94363000D03*
%TD*%
D16*
%TO.C,R13*%
X131764500Y-97046000D03*
X131764500Y-98696000D03*
%TD*%
D14*
%TO.C,R19*%
X137877000Y-91224500D03*
X139527000Y-91224500D03*
%TD*%
D17*
%TO.C,SW2*%
X133531500Y-115555000D03*
X133531500Y-111105000D03*
%TD*%
D18*
%TO.C,R28*%
X123552500Y-114092000D03*
X123552500Y-112442000D03*
%TD*%
D19*
%TO.C,C10*%
X143102500Y-91274000D03*
X143102500Y-92824000D03*
%TD*%
D18*
%TO.C,R6*%
X163001500Y-94903547D03*
X163001500Y-93253547D03*
%TD*%
D20*
%TO.C,R17*%
X143187500Y-89696000D03*
X141537500Y-89696000D03*
%TD*%
D13*
%TO.C,LED6*%
X130135500Y-98638500D03*
X130135500Y-97063500D03*
%TD*%
D19*
%TO.C,C12*%
X158454500Y-114638000D03*
X158454500Y-116188000D03*
%TD*%
D21*
%TO.C,T1*%
X171398379Y-68670618D03*
X172741882Y-70014121D03*
X173555055Y-67857445D03*
%TD*%
D22*
%TO.C,LED1*%
X164619500Y-97103500D03*
X164619500Y-98678500D03*
%TD*%
D23*
%TO.C,R24*%
X123584531Y-116875029D03*
X124751257Y-118041755D03*
%TD*%
D24*
%TO.C,T4*%
X121885211Y-70192214D03*
X123228714Y-68848711D03*
X121072038Y-68035538D03*
%TD*%
D18*
%TO.C,R2*%
X141257500Y-80400000D03*
X141257500Y-78750000D03*
%TD*%
D25*
%TO.C,J5*%
X126276500Y-114084000D03*
D26*
X126276500Y-111544000D03*
X126276500Y-109004000D03*
X126276500Y-106464000D03*
X126276500Y-103924000D03*
X126276500Y-101384000D03*
%TD*%
D13*
%TO.C,LED5*%
X130135500Y-94918500D03*
X130135500Y-93343500D03*
%TD*%
D20*
%TO.C,R5*%
X159225000Y-91700000D03*
X157575000Y-91700000D03*
%TD*%
D14*
%TO.C,R29*%
X129778500Y-117889000D03*
X131428500Y-117889000D03*
%TD*%
D25*
%TO.C,J3*%
X168477500Y-114084000D03*
D26*
X168477500Y-111544000D03*
X168477500Y-109004000D03*
X168477500Y-106464000D03*
X168477500Y-103924000D03*
X168477500Y-101384000D03*
%TD*%
D16*
%TO.C,R11*%
X131763500Y-89606000D03*
X131763500Y-91256000D03*
%TD*%
D27*
%TO.C,D1*%
X149293001Y-82576000D03*
X145292999Y-82576000D03*
%TD*%
D28*
%TO.C,R23*%
X170109228Y-117948454D03*
X171275954Y-116781728D03*
%TD*%
D29*
%TO.C,D3*%
X177619668Y-122344090D03*
X175639770Y-124323988D03*
%TD*%
D25*
%TO.C,J4*%
X168477500Y-74204000D03*
D26*
X168477500Y-76744000D03*
X168477500Y-79284000D03*
X168477500Y-81824000D03*
X168477500Y-84364000D03*
X168477500Y-86904000D03*
%TD*%
D25*
%TO.C,J6*%
X126276500Y-74204000D03*
D26*
X126276500Y-76744000D03*
X126276500Y-79284000D03*
X126276500Y-81824000D03*
X126276500Y-84364000D03*
X126276500Y-86904000D03*
%TD*%
D30*
%TO.C,D4*%
X119188895Y-124385469D03*
X117208997Y-122405571D03*
%TD*%
D31*
%TO.C,C3*%
X153194501Y-90686000D03*
X155094499Y-90686000D03*
%TD*%
D16*
%TO.C,R27*%
X163000500Y-86589000D03*
X163000500Y-88239000D03*
%TD*%
D19*
%TO.C,C1*%
X151600000Y-83280000D03*
X151600000Y-84830000D03*
%TD*%
D32*
%TO.C,SW1*%
X138178500Y-78704000D03*
X135678600Y-78704000D03*
X133178700Y-78704000D03*
X138178500Y-73004000D03*
X135678600Y-73004200D03*
X133178700Y-73004000D03*
%TD*%
D16*
%TO.C,R26*%
X163011500Y-83563000D03*
X163011500Y-85213000D03*
%TD*%
D13*
%TO.C,LED2*%
X164619500Y-94886048D03*
X164619500Y-93311046D03*
%TD*%
D33*
%TO.C,T3*%
X123409199Y-119560590D03*
X122065696Y-118217087D03*
X121252523Y-120373763D03*
%TD*%
D34*
%TO.C,T2*%
X172794789Y-118123786D03*
X171451286Y-119467289D03*
X173607962Y-120280462D03*
%TD*%
D35*
%TO.C,C5*%
X161498500Y-82107000D03*
X163048500Y-82107000D03*
%TD*%
D36*
%TO.C,J1*%
X150577500Y-79184000D03*
X149777500Y-79184000D03*
D37*
X148627500Y-79184000D03*
X147627500Y-79184000D03*
X147127500Y-79184000D03*
X146127500Y-79184000D03*
D36*
X144977500Y-79184000D03*
X144177500Y-79184000D03*
X144177500Y-79184000D03*
X144977500Y-79184000D03*
D37*
X145627500Y-79184000D03*
X146627500Y-79184000D03*
X148127500Y-79184000D03*
X149127500Y-79184000D03*
D36*
X149777500Y-79184000D03*
X150577500Y-79184000D03*
D38*
X151697500Y-78584000D03*
D39*
X151697500Y-74384000D03*
D38*
X143057500Y-78584000D03*
D39*
X143057500Y-74384000D03*
%TD*%
D15*
%TO.C,C14*%
X165653500Y-117863000D03*
X164103500Y-117863000D03*
%TD*%
D40*
%TO.C,J2*%
X161158501Y-80045600D03*
X158656499Y-80045600D03*
%TD*%
D41*
%TO.C,U8*%
X156127500Y-114914000D03*
X156127500Y-113644000D03*
X156127500Y-112374000D03*
X156127500Y-111104000D03*
X156127500Y-109834000D03*
X156127500Y-108564000D03*
X156127500Y-107294000D03*
X156127500Y-106024000D03*
X156127500Y-104754000D03*
X156127500Y-103484000D03*
X156127500Y-102214000D03*
X156127500Y-100944000D03*
X156127500Y-99674000D03*
X156127500Y-98404000D03*
D42*
X154362500Y-97154000D03*
X153092500Y-97154000D03*
X151822500Y-97154000D03*
X150552500Y-97154000D03*
X149282500Y-97154000D03*
X148012500Y-97154000D03*
X146742500Y-97154000D03*
X145472500Y-97154000D03*
X144202500Y-97154000D03*
X142932500Y-97154000D03*
X141662500Y-97154000D03*
X140392500Y-97154000D03*
D41*
X138627500Y-98404000D03*
X138627500Y-99674000D03*
X138627500Y-100944000D03*
X138627500Y-102214000D03*
X138627500Y-103484000D03*
X138627500Y-104754000D03*
X138627500Y-106024000D03*
X138627500Y-107294000D03*
X138627500Y-108564000D03*
X138627500Y-109834000D03*
X138627500Y-111104000D03*
X138627500Y-112374000D03*
X138627500Y-113644000D03*
X138627500Y-114914000D03*
D43*
X150277500Y-107894000D03*
X150277500Y-106494000D03*
X149577500Y-108594000D03*
X149577500Y-107194000D03*
X149577500Y-105794000D03*
X148877500Y-107894000D03*
D44*
X148877500Y-107194000D03*
D43*
X148877500Y-106494000D03*
X148177500Y-108594000D03*
X148177500Y-107194000D03*
X148177500Y-105794000D03*
X147477500Y-107894000D03*
X147477500Y-106494000D03*
%TD*%
D45*
%TO.C,D2*%
X175618683Y-63845739D03*
X177598581Y-65825637D03*
%TD*%
D18*
%TO.C,R4*%
X163001500Y-98696000D03*
X163001500Y-97046000D03*
%TD*%
%TO.C,R1*%
X139726500Y-80404000D03*
X139726500Y-78754000D03*
%TD*%
D46*
%TO.C,C16*%
X175586415Y-121162899D03*
X174490399Y-122258915D03*
%TD*%
D22*
%TO.C,LED3*%
X164619500Y-89623499D03*
X164619500Y-91198501D03*
%TD*%
D47*
%TO.C,C15*%
X174437492Y-65878992D03*
X175533508Y-66975008D03*
%TD*%
D18*
%TO.C,R7*%
X163001500Y-91256000D03*
X163001500Y-89606000D03*
%TD*%
D48*
%TO.C,C17*%
X120370086Y-122352216D03*
X119274070Y-121256200D03*
%TD*%
D18*
%TO.C,R3*%
X153624500Y-79987000D03*
X153624500Y-78337000D03*
%TD*%
D49*
%TO.C,R22*%
X171223047Y-71356179D03*
X170056321Y-70189453D03*
%TD*%
D50*
%TO.C,U2*%
X153522999Y-86450500D03*
X152573000Y-86450500D03*
X151623001Y-86450500D03*
X151623001Y-88725500D03*
X153522999Y-88725500D03*
%TD*%
D14*
%TO.C,R20*%
X131109500Y-101408000D03*
X132759500Y-101408000D03*
%TD*%
%TO.C,R16*%
X151600500Y-95101000D03*
X153250500Y-95101000D03*
%TD*%
D51*
%TO.C,IC1*%
X157464500Y-89899000D03*
X158734500Y-89899000D03*
X160004500Y-89899000D03*
X161274500Y-89899000D03*
X161274500Y-84475000D03*
X160004500Y-84475000D03*
X158734500Y-84475000D03*
X157464500Y-84475000D03*
D52*
X159369500Y-87187000D03*
%TD*%
D53*
%TO.C,C8*%
X146000000Y-87455000D03*
X146000000Y-85905000D03*
%TD*%
D54*
%TO.C,C18*%
X119093585Y-67153101D03*
X120189601Y-66057085D03*
%TD*%
D16*
%TO.C,R12*%
X131764500Y-93326000D03*
X131764500Y-94976000D03*
%TD*%
D55*
%TO.C,D5*%
X117060332Y-65971910D03*
X119040230Y-63992012D03*
%TD*%
D16*
%TO.C,R15*%
X147500000Y-85839000D03*
X147500000Y-87489000D03*
%TD*%
D14*
%TO.C,R14*%
X151524500Y-93535000D03*
X153174500Y-93535000D03*
%TD*%
D56*
%TO.C,U1*%
X153618499Y-82620000D03*
X153618499Y-84520000D03*
X155493500Y-83570000D03*
%TD*%
D19*
%TO.C,C11*%
X141579500Y-91274000D03*
X141579500Y-92824000D03*
%TD*%
D53*
%TO.C,C4*%
X156100000Y-93975000D03*
X156100000Y-92425000D03*
%TD*%
D18*
%TO.C,R8*%
X132901500Y-82344000D03*
X132901500Y-80694000D03*
%TD*%
D17*
%TO.C,SW3*%
X161171500Y-115555000D03*
X161171500Y-111105000D03*
%TD*%
D53*
%TO.C,C13*%
X158461500Y-113149000D03*
X158461500Y-111599000D03*
%TD*%
D19*
%TO.C,C2*%
X151599500Y-90461000D03*
X151599500Y-92011000D03*
%TD*%
D57*
%TO.C,U7*%
X149377500Y-92924000D03*
X149377500Y-92424000D03*
X149377500Y-91924000D03*
X149377500Y-91424000D03*
X149377500Y-90924000D03*
X149377500Y-90424000D03*
D58*
X148627500Y-89699000D03*
X148127500Y-89699000D03*
X147627500Y-89699000D03*
X147127500Y-89699000D03*
X146627500Y-89699000D03*
X146127500Y-89699000D03*
D57*
X145377500Y-90424000D03*
X145377500Y-90924000D03*
X145377500Y-91424000D03*
X145377500Y-91924000D03*
X145377500Y-92424000D03*
X145377500Y-92924000D03*
D58*
X146127500Y-93649000D03*
X146627500Y-93649000D03*
X147127500Y-93649000D03*
X147627500Y-93649000D03*
X148127500Y-93649000D03*
X148627500Y-93649000D03*
D59*
X147377500Y-91674000D03*
%TD*%
D60*
%TO.C,R25*%
X124570772Y-70367546D03*
X123404046Y-71534272D03*
%TD*%
D20*
%TO.C,R18*%
X165703500Y-116273000D03*
X164053500Y-116273000D03*
%TD*%
D14*
%TO.C,R21*%
X131109500Y-103918000D03*
X132759500Y-103918000D03*
%TD*%
M02*
